<svg width="74" height="74" viewBox="0 0 74 74" fill="none" xmlns="http://www.w3.org/2000/svg">
<g clip-path="url(#clip0_114_203)">
<path fill-rule="evenodd" clip-rule="evenodd" d="M34.6365 53.2133C42.9875 57.7385 52.5387 61.0623 62.0083 60.4111C65.4539 60.1745 68.6434 59.181 71.9178 58.1933C72.1475 58.1244 72.2785 57.8809 72.2096 57.65C72.1395 57.4192 71.896 57.2883 71.6652 57.3583C68.4539 58.3265 65.3276 59.3085 61.9486 59.5405C52.6133 60.1826 43.2034 56.8771 34.9788 52.407L35.0374 52.2749C35.6771 50.8427 35.2808 48.7524 34.2357 46.5587C32.738 43.414 29.9494 40.035 27.4398 38.1687C26.312 37.3302 25.2312 36.7973 24.34 36.6859C23.6451 36.5986 23.049 36.7548 22.5884 37.1706C21.6076 38.0573 21.642 39.5699 22.4196 41.3237C24.0448 44.9921 28.8181 49.8228 31.4069 51.3722C32.2154 51.8557 33.0378 52.3312 33.8728 52.794C33.7671 53.049 33.6626 53.2983 33.55 53.536C33.2273 54.2125 32.831 54.804 32.0673 55.2094C30.8762 55.84 29.4486 55.9491 27.9877 55.786C25.7079 55.5299 23.3476 54.603 21.6099 53.8071C11.9324 49.3737 7.13956 41.6843 4.56915 33.965C1.97462 26.1688 1.63465 18.3358 0.866286 13.7153C0.827236 13.4775 0.602125 13.3179 0.364379 13.357C0.126633 13.396 -0.0341607 13.6211 0.0060379 13.8589C0.778999 18.5093 1.12929 26.3928 3.7422 34.2407C6.37922 42.1656 11.3122 50.0491 21.2458 54.6007C23.0559 55.4299 25.516 56.3867 27.8901 56.6531C29.5336 56.8369 31.1358 56.6899 32.4761 55.9801C33.6787 55.3426 34.1564 54.348 34.6365 53.2133ZM34.2116 51.9843L34.2414 51.9189C34.8008 50.667 34.362 48.8523 33.4478 46.9343C32.0087 43.9125 29.3315 40.6633 26.9184 38.8693C26.0915 38.2537 25.3001 37.8115 24.6041 37.6254C24.0298 37.4727 23.5314 37.4945 23.1742 37.8184C22.8354 38.1227 22.701 38.5419 22.7067 39.0301C22.7125 39.6032 22.9031 40.2613 23.2167 40.9699C24.7787 44.4948 29.3671 49.1348 31.8548 50.6233C32.6277 51.085 33.4133 51.5399 34.2116 51.9843Z" fill="#FFFEF8"/>
<path fill-rule="evenodd" clip-rule="evenodd" d="M73.0251 56.843C72.9872 57.0302 72.8597 57.2656 72.7196 57.5172C72.3865 58.1167 71.9122 58.7553 71.7008 59.0654C71.5653 59.2652 71.6182 59.5363 71.8169 59.6718C72.0167 59.8073 72.2878 59.7557 72.4233 59.5558C72.6817 59.1757 73.3122 58.3234 73.6511 57.6171C73.8325 57.2381 73.9267 56.8878 73.906 56.6362C73.8716 56.2078 73.5328 55.9402 72.8609 55.9563C72.0661 55.9758 70.5902 56.3744 69.3544 55.8954C69.1304 55.8081 68.8766 55.9207 68.7905 56.1447C68.7032 56.3698 68.8146 56.6225 69.0397 56.7098C70.2181 57.1657 71.5917 56.9464 72.5163 56.8545C72.692 56.8372 72.9011 56.8395 73.0251 56.843Z" fill="#FFFEF8"/>
</g>
<defs>
<clipPath id="clip0_114_203">
<rect width="74" height="74" fill="white"/>
</clipPath>
</defs>
</svg>
