<svg width="278" height="278" viewBox="0 0 278 278" fill="none" xmlns="http://www.w3.org/2000/svg">
<circle cx="139" cy="139" r="139" transform="rotate(-180 139 139)" fill="#686868"/>
<g clip-path="url(#clip0_23_815)">
<path fill-rule="evenodd" clip-rule="evenodd" d="M18.6924 139.764C15.8698 143.198 12.5084 145.98 8.5921 148.071C7.81206 148.489 7.51451 149.462 7.93268 150.25C8.35084 151.03 9.32389 151.328 10.112 150.91C14.3982 148.61 18.0812 145.57 21.1772 141.806C21.7402 141.123 21.6436 140.102 20.9601 139.539C20.2685 138.976 19.2553 139.08 18.6924 139.764Z" fill="#04151F"/>
<path fill-rule="evenodd" clip-rule="evenodd" d="M7.69941 141.595C10.9482 141.418 14.197 141.258 17.4458 141.057C18.3304 141 19.0059 140.236 18.9496 139.352C18.8933 138.467 18.1294 137.792 17.2448 137.848C14.004 138.049 10.7633 138.21 7.51447 138.387C6.6323 138.435 5.95278 139.199 6.00264 140.084C6.0525 140.968 6.81242 141.652 7.69941 141.595Z" fill="#04151F"/>
<path fill-rule="evenodd" clip-rule="evenodd" d="M8.35867 129.657C11.4627 131.715 14.3255 134.047 17.2205 136.395C17.9121 136.958 18.9254 136.854 19.4802 136.162C20.0432 135.471 19.9386 134.457 19.247 133.903C16.2796 131.49 13.3284 129.094 10.1358 126.971C9.39601 126.48 8.39888 126.689 7.90834 127.429C7.4178 128.161 7.61884 129.166 8.35867 129.657Z" fill="#04151F"/>
<path fill-rule="evenodd" clip-rule="evenodd" d="M19.8984 121.682C20.1477 127.263 20.1557 133.19 19.8019 138.77C19.7536 139.655 20.4211 140.419 21.3137 140.475C22.1983 140.532 22.9623 139.856 23.0185 138.971C23.3724 133.278 23.3643 127.231 23.115 121.537C23.0748 120.653 22.3189 119.961 21.4344 120.001C20.5498 120.042 19.8582 120.797 19.8984 121.682Z" fill="#04151F"/>
<path fill-rule="evenodd" clip-rule="evenodd" d="M20.9196 141.811C25.1334 138.369 29.2668 134.806 33.6736 131.614C34.3893 131.091 34.5501 130.086 34.0274 129.362C33.5047 128.647 32.4995 128.486 31.7838 129.008C27.3287 132.241 23.1471 135.844 18.885 139.326C18.2015 139.889 18.097 140.902 18.6599 141.586C19.2228 142.277 20.2361 142.374 20.9196 141.811Z" fill="#04151F"/>
<path fill-rule="evenodd" clip-rule="evenodd" d="M22.1423 140.769C26.533 139.868 30.7308 139.619 35.1778 139.555C36.0624 139.547 36.77 138.815 36.762 137.93C36.7459 137.038 36.0221 136.33 35.1295 136.346C30.4734 136.41 26.0907 136.676 21.4909 137.617C20.6224 137.802 20.0595 138.646 20.2444 139.523C20.4214 140.391 21.2738 140.954 22.1423 140.769Z" fill="#04151F"/>
<path fill-rule="evenodd" clip-rule="evenodd" d="M21.7886 140.623C26.9996 143.229 32.7896 144.572 37.888 147.362C38.66 147.789 39.641 147.499 40.0672 146.719C40.4934 145.939 40.2039 144.966 39.4319 144.54C34.3013 141.733 28.4793 140.374 23.2281 137.745C22.432 137.351 21.467 137.672 21.0649 138.46C20.6708 139.256 20.9925 140.221 21.7886 140.623Z" fill="#04151F"/>
<path fill-rule="evenodd" clip-rule="evenodd" d="M20.6063 139.19C21.5231 144.376 21.9412 149.555 22.5604 154.774C22.665 155.659 23.4611 156.286 24.3457 156.181C25.2303 156.077 25.8575 155.281 25.753 154.396C25.1338 149.121 24.6995 143.878 23.7747 138.627C23.6139 137.758 22.7775 137.171 21.9091 137.324C21.0325 137.485 20.4455 138.313 20.6063 139.19Z" fill="#04151F"/>
<path fill-rule="evenodd" clip-rule="evenodd" d="M18.1619 135.58C18.1136 136.65 18.0412 137.663 17.8884 138.709C17.7597 139.593 18.3709 140.405 19.2475 140.534C20.124 140.663 20.9442 140.052 21.0729 139.175C21.2418 138.017 21.3222 136.899 21.3704 135.725C21.4107 134.841 20.7271 134.085 19.8345 134.053C18.9499 134.012 18.2021 134.696 18.1619 135.58Z" fill="#04151F"/>
</g>
<g clip-path="url(#clip1_23_815)">
<path fill-rule="evenodd" clip-rule="evenodd" d="M253.898 136.527C251.076 139.96 247.714 142.743 243.798 144.834C243.018 145.252 242.72 146.225 243.138 147.013C243.557 147.793 244.53 148.09 245.318 147.672C249.604 145.372 253.287 142.333 256.383 138.569C256.946 137.886 256.849 136.864 256.166 136.301C255.474 135.739 254.461 135.843 253.898 136.527Z" fill="#04151F"/>
<path fill-rule="evenodd" clip-rule="evenodd" d="M242.905 138.358C246.154 138.181 249.403 138.02 252.651 137.819C253.536 137.763 254.212 136.999 254.155 136.114C254.099 135.23 253.335 134.554 252.45 134.611C249.21 134.812 245.969 134.973 242.72 135.149C241.838 135.198 241.158 135.962 241.208 136.846C241.258 137.731 242.018 138.414 242.905 138.358Z" fill="#04151F"/>
<path fill-rule="evenodd" clip-rule="evenodd" d="M243.564 126.419C246.669 128.478 249.531 130.81 252.426 133.158C253.118 133.721 254.131 133.617 254.686 132.925C255.249 132.233 255.144 131.22 254.453 130.665C251.485 128.253 248.534 125.856 245.342 123.733C244.602 123.243 243.605 123.452 243.114 124.192C242.624 124.924 242.825 125.929 243.564 126.419Z" fill="#04151F"/>
<path fill-rule="evenodd" clip-rule="evenodd" d="M255.104 118.445C255.353 124.026 255.362 129.952 255.008 135.533C254.959 136.418 255.627 137.182 256.52 137.238C257.404 137.294 258.168 136.619 258.224 135.734C258.578 130.041 258.57 123.993 258.321 118.3C258.281 117.415 257.525 116.724 256.64 116.764C255.756 116.804 255.064 117.56 255.104 118.445Z" fill="#04151F"/>
<path fill-rule="evenodd" clip-rule="evenodd" d="M256.125 138.573C260.339 135.132 264.472 131.569 268.879 128.377C269.595 127.854 269.756 126.849 269.233 126.125C268.71 125.409 267.705 125.248 266.989 125.771C262.534 129.004 258.353 132.606 254.091 136.088C253.407 136.651 253.303 137.665 253.865 138.348C254.428 139.04 255.442 139.136 256.125 138.573Z" fill="#04151F"/>
<path fill-rule="evenodd" clip-rule="evenodd" d="M257.348 137.532C261.739 136.631 265.937 136.382 270.384 136.317C271.268 136.309 271.976 135.578 271.968 134.693C271.952 133.8 271.228 133.093 270.335 133.109C265.679 133.173 261.297 133.438 256.697 134.379C255.828 134.564 255.265 135.409 255.45 136.285C255.627 137.154 256.48 137.717 257.348 137.532Z" fill="#04151F"/>
<path fill-rule="evenodd" clip-rule="evenodd" d="M256.994 137.386C262.205 139.992 267.995 141.335 273.094 144.125C273.866 144.551 274.847 144.262 275.273 143.482C275.699 142.702 275.41 141.729 274.638 141.302C269.507 138.496 263.685 137.137 258.434 134.507C257.638 134.113 256.673 134.435 256.271 135.223C255.877 136.019 256.198 136.984 256.994 137.386Z" fill="#04151F"/>
<path fill-rule="evenodd" clip-rule="evenodd" d="M255.812 135.952C256.729 141.139 257.147 146.318 257.766 151.537C257.871 152.421 258.667 153.049 259.551 152.944C260.436 152.84 261.063 152.043 260.959 151.159C260.34 145.884 259.905 140.64 258.981 135.389C258.82 134.521 257.983 133.934 257.115 134.087C256.238 134.247 255.651 135.076 255.812 135.952Z" fill="#04151F"/>
<path fill-rule="evenodd" clip-rule="evenodd" d="M253.368 132.343C253.319 133.413 253.247 134.426 253.094 135.471C252.966 136.356 253.577 137.168 254.453 137.297C255.33 137.426 256.15 136.814 256.279 135.938C256.448 134.78 256.528 133.662 256.576 132.488C256.616 131.603 255.933 130.848 255.04 130.815C254.156 130.775 253.408 131.459 253.368 132.343Z" fill="#04151F"/>
</g>
<path d="M232.82 192.702L228.658 199.209C226.496 202.59 226.849 205.435 229.617 207.206C231.391 208.341 233.123 208.287 234.616 207.069C234.323 208.876 235.062 210.421 236.731 211.488C239.415 213.204 242.279 212.357 244.292 209.209L248.454 202.702L232.82 192.702ZM241.522 206.931C240.724 208.178 239.735 208.468 238.637 207.765C237.517 207.049 237.336 205.981 238.12 204.755L239.863 202.03L243.265 204.206L241.522 206.931ZM235.139 203.087C234.342 204.333 233.339 204.644 232.282 203.969C231.12 203.226 230.969 202.206 231.78 200.938L233.631 198.044L236.99 200.192L235.139 203.087Z" fill="white"/>
<path d="M223.104 206.823L225.209 210.378L221.307 214.929L217.488 213.372L214.681 216.647L233.063 223.719L235.642 220.711L225.863 203.605L223.104 206.823ZM229.174 217.081C229.541 217.693 229.944 218.303 230.218 218.637C229.827 218.401 229.127 218.099 228.521 217.843L224.648 216.273L227.031 213.493L229.174 217.081Z" fill="white"/>
<path d="M209.097 221.171C205.095 224.632 204.8 229.927 208.343 234.024C211.952 238.198 217.31 238.604 221.426 235.045L226.738 230.452L214.599 216.414L209.097 221.171ZM219.269 231.937C216.727 234.135 213.883 233.875 211.587 231.219C209.339 228.62 209.433 225.854 211.862 223.754L213.986 221.917L221.204 230.263L219.269 231.937Z" fill="white"/>
<path d="M199.639 228.438L200.606 232.455L195.541 235.659L192.347 233.05L188.702 235.355L204.196 247.515L207.545 245.397L203.221 226.173L199.639 228.438ZM202.428 240.027C202.599 240.72 202.805 241.421 202.969 241.822C202.664 241.48 202.085 240.986 201.58 240.564L198.339 237.925L201.433 235.968L202.428 240.027Z" fill="white"/>
<path d="M194.997 246.604C193.732 243.846 191.398 242.848 188.106 243.613L185.29 244.27C184.069 244.554 183.416 244.274 182.987 243.34C182.496 242.268 183.241 241.126 184.905 240.363C186.546 239.61 187.772 239.876 188.336 241.107L192.006 239.423C190.553 236.254 187.183 235.345 183.422 237.07C179.547 238.848 177.966 242.139 179.462 245.398C180.685 248.065 182.78 248.843 186.071 248.078L188.842 247.441C190.142 247.148 190.897 247.409 191.367 248.435C191.88 249.552 191.236 250.675 189.731 251.365C188.341 252.003 187.117 251.682 186.574 250.496L182.904 252.18C184.367 255.371 187.567 256.331 191.192 254.669C194.816 253.006 196.398 249.659 194.997 246.604Z" fill="white"/>
<path d="M181.263 252.682C180.35 249.788 178.158 248.507 174.797 248.857L171.921 249.16C170.673 249.29 170.06 248.931 169.751 247.95C169.397 246.826 170.278 245.786 172.024 245.235C173.746 244.692 174.929 245.108 175.336 246.399L179.187 245.184C178.138 241.86 174.908 240.539 170.962 241.783C166.896 243.066 164.918 246.135 165.997 249.555C166.88 252.354 168.862 253.385 172.223 253.035L175.051 252.748C176.378 252.619 177.094 252.971 177.433 254.047C177.803 255.219 177.025 256.254 175.446 256.752C173.987 257.212 172.813 256.741 172.421 255.497L168.57 256.712C169.626 260.06 172.682 261.41 176.485 260.211C180.288 259.011 182.274 255.887 181.263 252.682Z" fill="white"/>
<path d="M155.05 245.773L154.178 249.812L148.224 250.498L146.48 246.761L142.195 247.255L150.874 264.936L154.81 264.482L159.261 245.287L155.05 245.773ZM152.532 257.424C152.385 258.122 152.266 258.843 152.24 259.275C152.114 258.835 151.806 258.138 151.535 257.539L149.761 253.754L153.398 253.335L152.532 257.424Z" fill="white"/>
<path d="M134.564 252.954C130.778 252.865 128.188 255.288 128.101 258.998C128.014 262.709 130.488 265.25 134.274 265.339L141.795 265.515L142.23 246.962L138.169 246.867L138.024 253.035L134.564 252.954ZM135.261 261.75C133.305 261.704 132.348 260.829 132.388 259.099C132.429 257.369 133.426 256.539 135.382 256.585L137.939 256.645L137.818 261.81L135.261 261.75Z" fill="white"/>
<path d="M119.522 251.304C115.781 250.712 112.892 252.769 112.312 256.435C111.733 260.101 113.847 262.949 117.587 263.541L125.019 264.715L127.917 246.385L123.904 245.75L122.94 251.844L119.522 251.304ZM119.043 260.114C117.111 259.809 116.278 258.814 116.548 257.105C116.818 255.396 117.918 254.706 119.85 255.012L122.376 255.411L121.57 260.514L119.043 260.114Z" fill="white"/>
<path d="M109.931 242.757L108.052 248.975L105.051 248.067L104.266 241.044L100.017 239.76L101.004 247.761C98.7308 248.174 97.253 249.509 96.5563 251.814C95.4459 255.486 97.2631 258.315 101.584 259.622L108.45 261.697L113.82 243.933L109.931 242.757ZM105.606 257.065L102.629 256.165C100.901 255.642 100.211 254.543 100.661 253.055C101.119 251.542 102.364 250.976 104.068 251.491L107.021 252.384L105.606 257.065Z" fill="white"/>
<path d="M80.0165 240.444C77.5789 245.561 79.247 250.689 84.1148 253.008C88.96 255.317 94.0043 253.358 96.442 248.242C98.8797 243.125 97.2341 238.007 92.389 235.699C87.5212 233.38 82.4542 235.327 80.0165 240.444ZM83.8881 242.289C85.3982 239.119 87.9668 237.926 90.661 239.209C93.3779 240.504 94.0912 243.205 92.5596 246.42C91.0387 249.612 88.4918 250.76 85.7749 249.466C83.0806 248.182 82.3673 245.481 83.8881 242.289Z" fill="white"/>
<path d="M64.5302 229.561C61.3 234.218 62.1203 239.548 66.5509 242.621C70.961 245.68 76.2548 244.559 79.485 239.902C82.7151 235.245 81.9154 229.929 77.5054 226.87C73.0748 223.797 67.7603 224.903 64.5302 229.561ZM68.0541 232.005C70.055 229.12 72.7822 228.356 75.2345 230.057C77.7075 231.772 77.9763 234.552 75.9468 237.479C73.9315 240.384 71.2329 241.107 68.76 239.392C66.3077 237.691 66.0388 234.91 68.0541 232.005Z" fill="white"/>
<path d="M65.9941 217.862L62.9651 214.969L45.2152 223.681L48.2806 226.608L57.261 222.214C58.3133 221.693 59.2773 221.192 60.8516 220.233C60.0334 221.671 59.4907 222.748 59.0023 223.877L55.0643 233.085L58.2022 236.081L65.9941 217.862Z" fill="white"/>
<path d="M51.002 200.841L48.0574 203.182L52.8643 209.229L49.8608 211.616L45.6001 206.257L42.8125 208.473L47.0732 213.833L44.2267 216.096L39.4198 210.049L36.4751 212.39L43.8105 221.617L58.3373 210.068L51.002 200.841Z" fill="white"/>
<path d="M46.5381 193.4C43.8518 188.841 38.696 187.6 34.0289 190.35C29.2753 193.151 27.9135 198.349 30.6762 203.038L34.241 209.087L50.2302 199.666L46.5381 193.4ZM34.121 201.474C32.415 198.578 33.181 195.827 36.206 194.045C39.1661 192.301 41.8712 192.89 43.5008 195.656L44.9267 198.076L35.4196 203.677L34.121 201.474Z" fill="white"/>
<path d="M43.6335 90.6349L47.4926 83.9437C49.4973 80.4677 49.014 77.6413 46.1681 75.9999C44.3432 74.9474 42.6162 75.0805 41.1802 76.3657C41.3896 74.5468 40.5807 73.038 38.8644 72.0481C36.1054 70.4569 33.2832 71.4348 31.4163 74.6718L27.5572 81.363L43.6335 90.6349ZM34.2882 76.8203C35.0274 75.5385 36.0024 75.2034 37.1321 75.8549C38.2835 76.519 38.5126 77.5775 37.7859 78.8376L36.1696 81.6401L32.6719 79.6228L34.2882 76.8203ZM40.8407 80.3678C41.5799 79.086 42.5674 78.7291 43.6537 79.3556C44.8485 80.0447 45.0467 81.0565 44.2949 82.36L42.5783 85.3363L39.1241 83.3441L40.8407 80.3678Z" fill="white"/>
<path d="M52.692 76.0835L50.4262 72.6283L54.1147 67.9037L58.001 69.2834L60.6555 65.8833L41.9684 59.6617L39.5299 62.785L50.0838 79.4243L52.692 76.0835ZM46.1577 66.1141C45.7629 65.5195 45.3329 64.9292 45.0431 64.6076C45.4452 64.8261 46.1574 65.0957 46.7751 65.3234L50.7164 66.7141L48.4631 69.6003L46.1577 66.1141Z" fill="white"/>
<path d="M66.0258 61.1079C69.8655 57.4667 69.9175 52.1639 66.19 48.2332C62.3935 44.2297 57.0226 44.0695 53.0738 47.8142L47.9784 52.6461L60.7485 66.1124L66.0258 61.1079ZM55.3711 50.82C57.8096 48.5075 60.6623 48.6364 63.0782 51.1841C65.4424 53.6772 65.4754 56.4454 63.1461 58.6543L61.108 60.5871L53.515 52.5802L55.3711 50.82Z" fill="white"/>
<path d="M75.1408 53.4145L73.9897 49.4461L78.9032 46.0133L82.2129 48.4735L85.749 46.003L69.7133 34.5673L66.465 36.8367L71.6664 55.8418L75.1408 53.4145ZM71.8228 41.9656C71.62 41.2812 71.3823 40.5907 71.1998 40.1981C71.52 40.5251 72.1216 40.992 72.6451 41.391L76.0041 43.878L73.0026 45.9751L71.8228 41.9656Z" fill="white"/>
<path d="M78.9441 35.0541C80.3345 37.7514 82.7122 38.6418 85.9649 37.7268L88.7481 36.941C89.9553 36.6008 90.6202 36.8506 91.0913 37.7646C91.6314 38.8123 90.9393 39.9873 89.312 40.8262C87.707 41.6535 86.4706 41.4445 85.8501 40.2407L82.2612 42.0908C83.8585 45.1893 87.2664 45.9437 90.9444 44.0476C94.734 42.0941 96.1619 38.734 94.5187 35.5463C93.1742 32.9382 91.0459 32.2578 87.7931 33.1728L85.0545 33.9356C83.769 34.288 83.0034 34.0619 82.4863 33.0588C81.9233 31.9665 82.5148 30.8151 83.986 30.0567C85.3458 29.3557 86.5828 29.6209 87.1804 30.78L90.7693 28.9299C89.1605 25.8092 85.9202 24.9967 82.3758 26.8238C78.8315 28.6509 77.4043 32.0671 78.9441 35.0541Z" fill="white"/>
<path d="M92.3852 28.354C93.4299 31.2031 95.6785 32.3819 99.0197 31.8781L101.879 31.4441C103.119 31.2565 103.748 31.5869 104.102 32.5523C104.507 33.659 103.675 34.7389 101.956 35.3692C100.261 35.9908 99.0597 35.6297 98.5935 34.3582L94.8026 35.7482C96.0026 39.0211 99.2904 40.193 103.176 38.7684C107.178 37.3008 109.013 34.144 107.778 30.7769C106.768 28.0221 104.741 27.0826 101.399 27.5864L98.5873 28.0032C97.2679 28.1931 96.5364 27.8737 96.1479 26.8141C95.7249 25.6603 96.4548 24.5913 98.0088 24.0215C99.4452 23.4949 100.64 23.9117 101.089 25.1361L104.88 23.7461C103.671 20.4496 100.557 19.2409 96.8127 20.6136C93.0689 21.9864 91.2284 25.1988 92.3852 28.354Z" fill="white"/>
<path d="M118.887 34.0529L119.573 29.9783L125.49 29.0192L127.403 32.6724L131.661 31.9821L122.18 14.7183L118.269 15.3524L114.703 34.7312L118.887 34.0529ZM120.869 22.2988C120.983 21.5943 121.069 20.869 121.075 20.4361C121.221 20.8697 121.561 21.5515 121.859 22.1383L123.805 25.837L120.191 26.4229L120.869 22.2988Z" fill="white"/>
<path d="M139.022 25.9397C142.808 25.8547 145.285 23.3156 145.201 19.6049C145.118 15.8941 142.53 13.4688 138.744 13.5538L131.222 13.7228L131.639 32.2765L135.701 32.1853L135.562 26.0174L139.022 25.9397ZM137.923 17.1846C139.878 17.1407 140.875 17.9712 140.914 19.7012C140.953 21.4312 139.994 22.3056 138.039 22.3495L135.481 22.407L135.365 17.242L137.923 17.1846Z" fill="white"/>
<path d="M154.125 26.898C157.888 27.3171 160.681 25.1299 161.091 21.441C161.502 17.7521 159.26 15.0042 155.496 14.5851L148.019 13.7524L145.965 32.1968L150.002 32.6464L150.685 26.5149L154.125 26.898ZM154.199 18.0743C156.143 18.2908 157.021 19.2465 156.829 20.9664C156.638 22.6862 155.571 23.4254 153.627 23.2089L151.085 22.9257L151.657 17.7912L154.199 18.0743Z" fill="white"/>
<path d="M164.097 34.9951L165.689 28.6979L168.728 29.4665L169.835 36.4462L174.138 37.5345L172.785 29.587C175.037 29.07 176.452 27.6688 177.042 25.3347C177.983 21.6147 176.038 18.8723 171.662 17.7655L164.708 16.007L160.158 33.999L164.097 34.9951ZM167.761 20.5042L170.776 21.2667C172.527 21.7094 173.266 22.7758 172.885 24.2833C172.497 25.815 171.279 26.4382 169.553 26.0017L166.562 25.2454L167.761 20.5042Z" fill="white"/>
<path d="M194.086 35.9334C196.287 30.7101 194.385 25.6637 189.416 23.5704C184.47 21.4868 179.521 23.6744 177.32 28.8977C175.12 34.1209 176.999 39.1576 181.945 41.2412C186.914 43.3345 191.886 41.1567 194.086 35.9334ZM190.134 34.2685C188.771 37.5041 186.26 38.8138 183.51 37.6552C180.736 36.4869 179.9 33.8213 181.282 30.5395C182.655 27.2807 185.147 26.0172 187.92 27.1856C190.671 28.3442 191.507 31.0097 190.134 34.2685Z" fill="white"/>
<path d="M210.056 46.0958C213.069 41.2952 212.005 36.0084 207.438 33.1419C202.892 30.2888 197.655 31.6506 194.642 36.4512C191.629 41.2518 192.672 46.5253 197.217 49.3784C201.784 52.2448 207.042 50.8964 210.056 46.0958ZM206.423 43.816C204.557 46.7898 201.867 47.6779 199.34 46.0914C196.791 44.4915 196.395 41.726 198.288 38.7097C200.168 35.7147 202.83 34.8691 205.379 36.469C207.907 38.0555 208.303 40.821 206.423 43.816Z" fill="white"/>
<path d="M209.13 57.8493L212.289 60.5996L229.62 51.0831L226.424 48.2998L217.654 53.1008C216.627 53.6695 215.687 54.2144 214.158 55.2443C214.91 53.7704 215.403 52.6698 215.839 51.5198L219.35 42.1404L216.078 39.2913L209.13 57.8493Z" fill="white"/>
<path d="M224.887 74.1643L227.721 71.6906L222.642 65.8712L225.533 63.348L230.035 68.5062L232.718 66.1644L228.216 61.0063L230.955 58.615L236.035 64.4345L238.869 61.9608L231.118 53.0805L217.136 65.2839L224.887 74.1643Z" fill="white"/>
<path d="M229.688 81.3926C232.58 85.8237 237.788 86.827 242.324 83.8658C246.944 80.8498 248.066 75.5949 245.091 71.0379L241.252 65.1578L225.712 75.3025L229.688 81.3926ZM241.722 72.7582C243.559 75.5723 242.92 78.3555 239.98 80.2747C237.102 82.1529 234.373 81.6883 232.619 79.0003L231.083 76.6482L240.323 70.6162L241.722 72.7582Z" fill="white"/>
<circle cx="140.5" cy="139.5" r="96.5" fill="#DF928E"/>
<path fill-rule="evenodd" clip-rule="evenodd" d="M132.307 101.793V114.823C132.307 126.89 122.525 136.672 110.458 136.672H99.8491C87.7822 136.672 78 126.89 78 114.823V98.2565C78 97.2781 78.7931 96.485 79.7715 96.485H130.536C130.73 96.485 130.916 96.5161 131.091 96.5737C131.574 96.5242 132.111 96.4712 132.684 96.4182C134.894 96.2135 137.712 95.9995 139.91 95.9995C142.117 95.9995 144.737 96.2145 146.754 96.4206C147.27 96.4732 147.751 96.5258 148.183 96.575C148.359 96.5166 148.547 96.485 148.742 96.485H199.506C200.485 96.485 201.278 97.2781 201.278 98.2565V114.823C201.278 126.89 191.496 136.672 179.429 136.672H168.82C156.753 136.672 146.97 126.89 146.97 114.823V101.787C146.729 101.761 146.476 101.734 146.215 101.708C144.243 101.506 141.839 101.314 139.91 101.314C137.973 101.314 135.36 101.508 133.174 101.71C132.874 101.738 132.584 101.766 132.307 101.793Z" fill="#04151F"/>
<path d="M84.1536 185.467C84.1536 185.467 133.428 193.401 164.654 189C195.879 184.598 203.94 153 203.94 153" stroke="#04151F" stroke-width="5.64276"/>
<defs>
<clipPath id="clip0_23_815">
<rect width="36.9914" height="36.9914" fill="white" transform="matrix(0 -1 1 0 6 155.991)"/>
</clipPath>
<clipPath id="clip1_23_815">
<rect width="36.9914" height="36.9914" fill="white" transform="matrix(0 -1 1 0 240 152.992)"/>
</clipPath>
</defs>
</svg>
