<svg width="153" height="66" viewBox="0 0 153 66" fill="none" xmlns="http://www.w3.org/2000/svg">
<path d="M15.52 12.344C24.496 9.176 30.976 15.416 24.736 21.848L24.304 22.088C24.208 22.088 24.16 22.136 24.16 22.184C24.064 22.904 23.44 23.24 23.056 23.768C22.768 24.008 22.384 24.248 22 24.536C21.904 24.584 21.76 24.584 21.616 24.584C21.52 25.064 21.088 25.352 20.704 25.688C20.416 25.976 20.032 26.168 19.648 26.408C18.208 27.224 16.912 28.04 15.136 29.096V29.192C17.728 28.904 20.176 29.576 22 31.4C23.824 33.224 24.016 36.104 22.048 38.504C21.856 38.696 21.664 38.888 21.472 38.984C21.424 39.128 21.472 39.224 21.424 39.224C20.608 39.944 19.84 40.472 18.88 41C17.152 41.96 16.144 42.2 14.368 42.488C13.6 42.632 12.832 42.584 12.064 42.68C12.016 42.728 11.536 42.68 11.488 42.68C10.864 42.632 9.664 42.632 9.28 42.536C8.848 42.488 8.416 42.392 8.08 42.296C7.552 42.152 7.168 42.056 6.688 41.864C6.352 41.768 5.92 41.672 5.344 41.624C5.152 42.248 5.488 42.824 4.624 43.304C4.336 43.304 4.432 43.112 4.336 42.968C3.76 42.152 3.664 41 3.712 39.992C3.712 38.312 4 36.584 4.24 34.952C4.432 34.136 4.528 33.32 4.816 32.504C5.056 31.976 4.816 31.448 5.2 30.92C5.536 30.488 5.584 29.816 5.824 29.288C6.496 27.512 7.024 25.736 7.84 24.056C8.32 23.144 8.656 22.184 9.376 21.416C10.096 21.368 10.48 21.56 10.864 22.184C11.056 22.76 9.712 25.448 7.648 30.104C8.896 29.816 12.88 28.424 14.464 27.56C17.248 26.072 19.744 24.248 22.144 22.088C23.152 21.176 24.064 20.12 24.736 18.968C27.424 14.552 22.768 12.44 16.768 14.408C13.456 15.464 9.04 17.96 6.496 20.504C5.392 21.56 4.48 22.664 3.52 23.864C3.232 24.2 3.088 24.584 3.04 25.016C2.992 25.304 3.184 25.448 3.472 25.496C3.712 25.592 4 25.592 4.48 25.688C3.952 26.024 3.568 26.216 3.184 26.264C0.784 26.216 0.496 23.72 1.312 22.472C3.808 18.536 10.096 14.264 15.52 12.344ZM17.344 30.872C13.6 30.344 11.008 31.304 8.608 31.88C8.032 32.024 7.264 32.264 7.024 32.312C6.832 32.744 6.736 33.128 6.592 33.704C6.4 34.424 5.488 37.928 5.488 39.032C5.488 39.992 6.784 40.376 7.12 40.472C8.032 40.712 10.144 41.288 12.208 41.144C15.136 40.952 17.44 40.28 19.6 38.072C20.896 36.728 21.616 34.568 20.704 32.888C20.032 31.688 19.072 31.112 17.344 30.872ZM39.1889 28.616C38.7089 29.336 37.9409 29.96 37.3169 30.392C37.0769 30.584 36.7409 30.728 36.5969 30.824C36.4529 30.968 36.2609 31.208 36.0209 31.304C35.9729 31.352 35.6369 31.736 35.4929 31.784L34.7729 32.408L33.6209 33.272C33.2369 33.704 32.8049 33.8 32.3249 34.136C32.0369 34.28 31.8929 34.232 31.6529 34.376C31.5569 34.424 31.3169 34.52 31.1729 34.52C31.1249 34.52 30.8849 34.616 30.7409 34.616C30.5489 34.616 30.1169 34.712 29.9249 34.664C29.8289 34.616 29.5409 34.616 29.4449 34.52C29.3009 34.472 29.2049 34.28 29.0609 34.232C28.7729 33.848 28.4369 33.656 28.2449 33.224C27.9569 32.936 28.0049 32.84 27.8609 32.6C27.7649 32.552 27.7649 32.456 27.7169 32.36C27.3809 32.552 27.3809 33.032 27.0449 33.032C26.9489 33.128 26.9009 33.272 26.8049 33.32C26.2289 33.752 25.4609 34.376 24.6929 34.712C23.9249 35.096 23.1089 35.096 22.3889 34.808C22.2929 34.808 22.1489 34.808 22.0049 34.76C21.9089 34.664 21.5249 34.424 21.2369 34.28C20.8049 33.704 20.6609 33.08 20.8529 32.36C20.9969 32.024 21.0929 31.784 21.1889 31.496C21.2369 31.448 21.2369 31.448 21.2369 31.4C21.2849 31.112 21.4289 30.872 21.5249 30.536L21.8609 29.96C22.0529 29.72 22.1489 29.48 22.2449 29.384C22.7729 28.568 23.3969 27.992 23.9729 27.272C24.5489 26.648 25.3649 26.072 26.2769 25.976C27.2849 26.168 28.4369 26.36 28.6289 27.464C28.7729 28.136 28.3889 28.568 28.1489 29.048C28.5329 29 28.8689 28.616 29.4449 28.664C29.7329 28.76 29.9249 29 30.0209 29.336C30.0209 29.336 30.0689 29.864 29.9249 30.248C29.8769 30.296 29.8769 30.392 29.8289 30.488C29.6849 31.16 29.6849 31.88 29.9729 32.552C30.0209 32.744 30.1649 32.936 30.4049 33.08C30.5009 33.128 30.5969 33.128 30.7409 33.08C30.8849 33.032 31.0769 33.032 31.2689 32.936C32.0369 32.6 32.8049 32.024 33.4769 31.544C34.1009 31.16 34.8209 30.728 35.4929 30.248C36.6449 29.528 36.5489 29.624 37.6529 28.904C37.9889 28.616 38.3729 28.376 38.8529 28.088L38.9969 28.184L39.1889 28.616ZM27.4769 29.96C27.5249 29.96 27.7169 29.72 27.7169 29.72H27.6689C26.6129 29.624 26.9969 27.512 27.0449 27.464C25.6049 27.704 23.9249 29.96 23.3969 30.872C22.9649 31.64 22.5329 32.456 22.2929 33.416C22.8209 33.416 23.6849 33.368 24.1649 33.176C24.7889 32.936 25.2209 32.6 25.7009 32.072C26.4209 31.304 26.7569 30.728 27.4769 29.96ZM55.7125 4.856C55.8085 5.336 55.6645 5.816 55.5205 6.152L55.2805 7.064C55.1845 7.64 54.9925 8.168 54.8485 8.84C54.8485 8.936 54.7045 8.984 54.7045 8.984C54.8485 9.272 54.9445 10.088 54.4165 10.328L54.1765 11C54.0325 11 53.9365 11 53.8405 11.048V11.096L53.7925 11.336C53.7445 11.576 53.7445 11.864 53.7445 12.104C53.6965 12.104 53.6485 12.152 53.5045 12.2C53.4085 12.632 53.3605 12.872 53.1685 13.064C53.1685 13.256 52.9765 13.736 52.7845 14.072L52.2565 14.648C52.1605 14.792 52.0165 14.984 51.9685 15.176H51.8725C51.7765 15.848 51.6805 15.992 51.4405 16.28L50.5285 17.384C50.7685 17.48 48.8005 20.168 48.5125 20.456C48.4645 20.456 48.0325 21.224 47.7445 21.608C47.5045 22.088 47.1685 22.712 47.1205 22.856C47.0245 22.808 46.9285 23.144 46.7845 23.096L46.4005 23.768C46.0645 24.344 45.7765 24.488 45.6805 24.632C45.4405 24.776 45.2485 25.016 45.0565 25.304C44.8165 25.544 44.8165 25.544 44.7205 25.544C44.6245 25.64 44.6245 25.736 44.5285 25.88C44.4325 25.928 44.3845 26.072 44.3365 26.168L42.2245 28.856C42.1285 29 42.1285 29.096 42.1285 29.192V29.384C42.1285 29.432 42.1285 29.576 42.0325 29.624C42.1285 29.72 42.0805 29.864 41.9365 30.104C41.8405 30.2 41.9845 30.44 41.9845 30.632L42.2245 32.312L42.3685 32.84C42.3685 32.888 42.4645 33.176 42.5605 33.224C42.7525 33.512 42.9445 33.608 43.1365 33.704C43.7605 33.896 44.0005 33.896 44.6245 33.848C45.2965 33.848 46.0165 33.608 46.7845 33.368C47.9845 32.936 49.0885 32.216 50.2885 31.688C50.5285 31.544 50.7685 31.448 51.0085 31.256C51.1045 31.208 51.1045 31.256 51.2005 31.256C51.2485 31.304 50.6245 32.12 50.7205 32.12C50.3845 32.456 50.1925 32.696 49.8085 33.032C49.8085 33.032 49.9525 33.08 49.9525 33.176C49.2805 33.704 49.2325 33.752 48.6565 34.28C48.1765 34.568 47.0245 34.856 46.5925 35.096C46.2565 35.24 45.8725 35.384 45.4405 35.432C45.2005 35.528 44.9605 35.528 44.6725 35.528C44.3845 35.528 44.0485 35.432 43.7125 35.432C43.0405 35.432 42.3205 35.192 41.7925 34.904C41.2165 34.472 40.9765 34.184 40.7845 33.656L40.6405 33.512L40.5925 33.32C40.4485 32.648 40.2085 32.072 40.1125 31.736L39.5845 32.504C39.4885 32.6 39.3925 32.84 39.2965 32.984C38.8165 33.656 38.7205 33.608 38.4325 33.992C38.0965 34.328 37.7125 34.712 37.3765 35.096C36.9445 35.384 36.5125 35.624 35.9845 35.912C35.2165 36.392 34.4485 36.344 33.7285 36.152C33.3925 36.104 33.0085 35.768 32.6725 35.528C32.4805 35.384 32.3845 35 32.1925 34.664C32.1445 34.568 32.1925 34.376 32.1445 34.184C32.0485 33.752 31.6645 33.368 31.7605 32.792C31.9525 32.264 32.0005 31.832 32.0965 31.256V31.208H32.1925C32.3845 30.728 32.6245 30.008 32.7205 29.768C32.7205 29.768 32.7205 29.72 32.8165 29.72C33.0565 29.24 33.2485 28.856 33.4405 28.616L33.7285 28.184C36.6085 24.968 39.3925 26.312 39.3925 26.312C39.3925 26.312 40.8805 27.464 39.3445 28.808H39.2485C38.6245 28.856 38.3365 28.568 38.2405 27.896C38.0485 27.416 37.6165 27.32 36.8005 27.608C36.5605 27.8 36.3205 27.896 36.1285 28.136C35.5045 28.664 34.9765 29.432 34.6405 30.152C34.5445 30.344 34.3525 30.728 34.3045 30.776C34.3045 30.872 34.3045 30.968 34.2085 31.112C34.0645 31.592 33.9205 32.216 33.9205 32.456C33.8725 32.6 33.8725 32.792 33.7765 32.888C33.4405 33.512 33.6805 34.04 33.6325 34.616C34.2565 34.904 34.7845 34.616 35.1205 34.424C35.5525 34.184 35.7925 34.04 36.1765 33.656C36.6085 33.32 36.8485 32.84 37.2325 32.504C37.4245 32.12 37.8085 31.88 38.0485 31.544L39.3445 29.72L40.1125 28.328C40.1125 28.28 40.1125 28.424 40.4485 27.608C40.4485 27.512 40.5445 27.32 40.5445 27.272C40.5925 27.176 40.6405 27.032 40.6405 26.84L41.1205 23.624C41.3125 22.808 41.4565 22.088 41.6965 21.224C41.8405 20.6 41.9365 19.976 42.0805 19.256C42.1285 19.112 42.8485 16.52 43.1365 15.704C43.4245 14.504 43.8565 13.4 44.2885 12.248C44.5285 11.528 44.6725 11.096 44.8645 10.808L45.2965 9.512C45.5365 9.08 45.7285 8.648 46.0165 8.12C46.1605 7.832 46.2085 7.544 46.4005 7.208C46.5925 6.968 46.7365 6.728 46.7845 6.536L47.2165 5.72C47.2165 5.624 47.2165 5.624 47.2645 5.576C47.5525 5.24 47.7445 4.808 47.9845 4.328C47.9845 4.28 48.0325 4.232 48.0805 4.232C48.2245 3.992 48.4645 3.752 48.6085 3.512C48.6565 3.464 48.6565 3.464 48.6565 3.416C48.6565 2.984 49.0405 2.744 49.2325 2.504C49.4245 2.264 49.6645 1.976 49.8565 1.688C50.5285 0.919998 51.4405 0.535997 52.4965 0.343997C53.2645 0.151999 54.0805 0.391999 54.7525 0.871999C55.2805 1.16 55.3765 1.736 55.7125 2.312C55.8085 2.696 55.5205 3.128 55.6645 3.512C55.6645 3.512 55.6165 3.656 55.5205 3.704L55.6645 3.992L55.7125 4.856ZM53.8405 3.8C53.9365 3.032 54.0325 2.312 53.6485 1.592C53.6485 1.448 53.6005 1.352 53.5525 1.352C53.3605 1.4 53.1685 1.448 52.9765 1.592L52.6405 1.976C52.4965 2.168 52.3045 2.216 52.1605 2.312L51.2485 3.224C50.6725 3.8 50.1445 4.52 49.6645 5.24C49.4725 5.48 49.3285 5.72 49.2325 5.912C49.0405 6.248 48.8005 6.632 48.4645 7.064C48.3685 7.352 48.2245 7.688 48.0805 7.976C47.9365 8.312 47.8405 8.648 47.6485 8.936C47.4565 9.272 47.3125 9.56 47.1205 9.848C47.0725 10.136 46.9765 10.328 46.9285 10.52C46.7365 10.76 46.6405 10.856 46.5445 11.096C46.4485 11.384 46.4005 11.768 46.3045 12.104C46.0645 12.584 45.8725 13.16 45.6805 13.736L45.3925 14.792C45.1525 15.08 45.2485 15.608 44.8645 15.704C44.8645 15.8 44.9125 15.848 44.9125 15.944C44.8165 16.28 44.7685 16.568 44.6725 16.856C44.5285 17.336 44.3365 17.576 44.2405 18.056C44.1925 18.344 44.1445 18.728 43.9525 19.016C43.9045 19.352 43.7125 19.64 43.5685 19.976C43.5205 20.168 43.6165 20.456 43.7605 20.504C43.6165 20.744 43.5685 20.936 43.5205 21.08C43.4725 21.176 43.4725 21.224 43.4725 21.224C43.1845 21.608 43.3765 21.992 43.2325 22.28C43.2325 22.328 43.3765 22.376 43.3765 22.376C43.3765 22.472 43.4245 22.52 43.3765 22.568C43.2325 22.808 43.1365 23.096 42.9925 23.336L42.8485 24.008C42.7045 24.296 42.6565 24.872 42.6565 24.92C42.8485 24.728 42.9925 24.488 43.1845 24.248C43.6165 23.768 44.0485 23.144 44.4805 22.568C44.7685 22.28 45.0085 21.848 45.3445 21.464L46.2565 20.168L47.3605 18.632C47.6965 18.152 48.0325 17.576 48.3685 17.096C48.5605 16.664 48.8965 16.28 49.1845 15.848C49.6645 14.936 50.2405 14.024 50.7205 13.064C51.0565 12.536 51.3445 12.056 51.5845 11.48L52.3525 9.416L52.7845 8.456C53.0245 7.784 53.2165 7.16 53.3125 6.536C53.4565 5.576 53.6485 4.76 53.8405 3.8ZM62.5889 28.616C62.1089 29.336 61.3409 29.96 60.7169 30.392C60.4769 30.584 60.1409 30.728 59.9969 30.824C59.8529 30.968 59.6609 31.208 59.4209 31.304C59.3729 31.352 59.0369 31.736 58.8929 31.784L58.1729 32.408L57.0209 33.272C56.6369 33.704 56.2049 33.8 55.7249 34.136C55.4369 34.28 55.2929 34.232 55.0529 34.376C54.9569 34.424 54.7169 34.52 54.5729 34.52C54.5249 34.52 54.2849 34.616 54.1409 34.616C53.9489 34.616 53.5169 34.712 53.3249 34.664C53.2289 34.616 52.9409 34.616 52.8449 34.52C52.7009 34.472 52.6049 34.28 52.4609 34.232C52.1729 33.848 51.8369 33.656 51.6449 33.224C51.3569 32.936 51.4049 32.84 51.2609 32.6C51.1649 32.552 51.1649 32.456 51.1169 32.36C50.7809 32.552 50.7809 33.032 50.4449 33.032C50.3489 33.128 50.3009 33.272 50.2049 33.32C49.6289 33.752 48.8609 34.376 48.0929 34.712C47.3249 35.096 46.5089 35.096 45.7889 34.808C45.6929 34.808 45.5489 34.808 45.4049 34.76C45.3089 34.664 44.9249 34.424 44.6369 34.28C44.2049 33.704 44.0609 33.08 44.2529 32.36C44.3969 32.024 44.4929 31.784 44.5889 31.496C44.6369 31.448 44.6369 31.448 44.6369 31.4C44.6849 31.112 44.8289 30.872 44.9249 30.536L45.2609 29.96C45.4529 29.72 45.5489 29.48 45.6449 29.384C46.1729 28.568 46.7969 27.992 47.3729 27.272C47.9489 26.648 48.7649 26.072 49.6769 25.976C50.6849 26.168 51.8369 26.36 52.0289 27.464C52.1729 28.136 51.7889 28.568 51.5489 29.048C51.9329 29 52.2689 28.616 52.8449 28.664C53.1329 28.76 53.3249 29 53.4209 29.336C53.4209 29.336 53.4689 29.864 53.3249 30.248C53.2769 30.296 53.2769 30.392 53.2289 30.488C53.0849 31.16 53.0849 31.88 53.3729 32.552C53.4209 32.744 53.5649 32.936 53.8049 33.08C53.9009 33.128 53.9969 33.128 54.1409 33.08C54.2849 33.032 54.4769 33.032 54.6689 32.936C55.4369 32.6 56.2049 32.024 56.8769 31.544C57.5009 31.16 58.2209 30.728 58.8929 30.248C60.0449 29.528 59.9489 29.624 61.0529 28.904C61.3889 28.616 61.7729 28.376 62.2529 28.088L62.3969 28.184L62.5889 28.616ZM50.8769 29.96C50.9249 29.96 51.1169 29.72 51.1169 29.72H51.0689C50.0129 29.624 50.3969 27.512 50.4449 27.464C49.0049 27.704 47.3249 29.96 46.7969 30.872C46.3649 31.64 45.9329 32.456 45.6929 33.416C46.2209 33.416 47.0849 33.368 47.5649 33.176C48.1889 32.936 48.6209 32.6 49.1009 32.072C49.8209 31.304 50.1569 30.728 50.8769 29.96ZM74.9845 29.768L75.0805 29.912C74.9365 29.912 74.7925 29.912 74.6485 29.96C74.6965 30.248 74.3605 30.296 74.1685 30.392C74.0725 30.44 73.9285 30.488 73.8325 30.584C73.5925 30.824 73.3045 30.968 72.9685 31.16C72.5845 31.304 72.2965 31.496 72.0565 31.736C71.2885 32.072 70.6165 32.552 69.8965 32.936C69.3685 33.272 68.8405 33.752 68.2645 34.088C68.2165 34.136 68.0245 34.28 68.0245 34.328C68.0245 34.424 68.0245 34.52 68.0725 34.664C68.0245 34.856 68.1205 35.144 68.1205 35.336C68.0725 35.816 68.0725 36.344 68.0725 36.92C68.0725 37.112 67.9285 37.304 67.8805 37.496C67.8805 37.784 68.0245 37.976 68.0725 38.168C68.0725 38.312 68.1685 38.504 67.9765 38.648C67.9765 38.744 68.0245 38.84 68.0245 38.984C67.9285 39.848 67.7365 40.76 67.5445 41.624C67.5445 41.816 67.4485 41.96 67.3045 42.2C67.4485 42.488 67.2565 42.728 67.0645 43.064C67.0645 43.112 66.9685 43.256 66.9205 43.4C66.5365 43.928 66.2965 44.408 65.9125 44.936C65.7685 44.984 65.6725 44.984 65.5285 44.984C65.5285 45.032 65.5765 45.032 65.5765 45.128L65.0965 45.32C64.8085 45.368 64.5205 45.272 64.2325 45.176C63.9445 45.032 63.6565 44.936 63.4165 44.792C63.3205 44.696 63.1285 44.456 63.0325 44.312C62.9845 44.312 62.9845 44.264 62.9365 44.168C62.5045 43.928 62.3125 43.4 62.1205 43.064C61.9285 42.584 61.7365 42.2 61.5925 41.816C61.3525 41.192 61.2565 40.472 61.4485 39.752L61.4965 39.704C61.5925 39.608 61.6405 39.608 61.6405 39.56C61.7365 39.224 61.9285 38.888 62.0245 38.648C62.2645 37.928 62.6005 37.256 63.0325 36.68C63.4645 36.104 64.0405 35.576 64.4725 35.144L65.6725 33.992L66.0565 33.656C66.3445 33.56 66.3925 33.272 66.3445 33.032C66.3925 32.216 66.4405 31.496 66.4405 30.824C66.4405 30.488 66.4405 30.152 66.4885 29.912V29.24L66.5845 28.856C66.2005 29.144 65.7685 29.432 65.2885 29.816C64.5685 30.392 62.0245 32.024 61.1605 32.6C60.4885 33.08 59.5765 33.56 59.0005 34.04L59.0485 34.424C59.1445 35.192 59.2405 35.672 59.2885 36.296C59.2885 36.872 59.3845 37.496 59.2405 38.072C59.0005 39.128 58.6645 39.8 58.0885 40.472C57.7045 40.856 57.2245 41.24 56.7925 41.624C56.4565 41.912 56.0245 42.008 55.4485 42.104C54.5845 42.008 53.7685 41.864 53.3365 41.576C53.0005 41.336 52.8565 40.808 52.5685 40.472C52.0405 39.656 52.1845 38.84 52.6165 37.88C53.2405 36.152 54.4405 35.24 55.6405 34.376C56.1205 34.04 56.6965 33.8 57.1765 33.464C57.0805 32.696 56.8885 32.456 56.8405 31.736C56.6965 30.44 56.5045 29.144 56.7925 27.8C56.8885 26.552 57.5125 25.4 58.5205 24.392C59.0965 23.672 60.3925 23.528 60.5365 23.624C60.7285 23.624 60.9205 23.672 61.0645 23.768C61.9285 24.008 62.2165 24.872 62.3125 25.112L62.2645 25.352C62.2645 25.352 61.8805 25.832 61.3525 25.208C60.9205 24.776 60.4405 24.776 59.9125 25.208C58.3765 26.84 58.2325 28.472 58.3765 30.296C58.4245 30.92 58.4245 31.352 58.5205 31.976C58.5205 32.072 58.5685 32.504 58.6165 32.696C59.0005 32.456 60.3445 31.64 60.7765 31.352C62.0245 30.488 64.6645 28.712 65.9125 27.656L67.6405 26.216L67.9765 25.736C68.1685 25.544 68.4085 25.352 68.6965 25.304C69.2725 25.016 71.1445 25.592 70.6165 25.928C70.4245 26.072 70.0885 26.072 70.0885 26.072C69.7045 26.312 69.8005 26.168 69.7045 26.36C69.5605 26.504 69.4165 26.648 69.3685 26.792C69.1765 27.032 69.0805 27.464 68.9365 27.752C68.7445 28.232 68.5525 28.664 68.5525 29.192C68.6005 29.192 68.5525 29.24 68.5525 29.24C68.1205 29.768 68.2165 30.392 68.2165 31.016C68.1685 31.256 68.1205 31.784 68.1205 32.024C68.1205 32.168 68.0725 32.264 68.1205 32.36C68.6965 32.12 69.4645 31.448 69.8965 31.256C71.4805 30.44 72.6805 29.72 74.1685 28.856C74.7925 28.568 75.3685 28.232 75.8965 27.944C75.9445 27.848 75.9925 27.848 76.0885 27.848C76.1365 27.944 76.1365 27.992 76.1365 28.136C76.0885 28.328 75.3205 29.432 74.9845 29.768ZM56.3605 39.8C56.6005 39.416 57.3205 39.08 57.5605 37.928C57.8005 36.728 57.5125 35.672 57.4165 34.856C56.9365 35.096 56.7445 35.24 56.4565 35.48C55.7845 35.72 55.2565 36.488 54.7765 36.824C54.5365 37.16 54.3445 37.448 54.0085 38.216C53.8645 38.648 53.8645 39.032 53.8645 39.416C53.9125 40.184 54.2005 40.472 54.8725 40.472C55.3045 40.472 55.7365 40.184 56.3605 39.8ZM66.2965 37.496C66.2005 36.776 66.3925 36.104 66.4405 35.384C66.2005 35.576 65.9125 35.72 65.7205 35.96C65.3845 36.2 65.0485 36.344 64.8085 36.728C64.6645 36.968 64.3765 37.112 64.2805 37.256C63.8485 37.928 63.4165 38.648 63.2245 39.224C63.0325 39.896 63.0325 40.568 62.9845 41.192C62.9845 41.336 63.1285 41.48 63.0805 41.672C63.0325 42.248 63.0805 42.824 63.4165 43.352C63.5605 43.544 63.8485 43.592 64.0405 43.448C64.6165 43.208 64.8565 42.584 65.1925 42.2C65.4325 41.864 65.5285 41.48 65.6245 41.096C65.7685 40.616 66.0085 40.088 66.0565 39.608C66.2485 38.888 66.3445 38.264 66.2965 37.496ZM80.0928 30.296L79.3728 30.92C79.2768 31.016 79.2768 31.16 79.0368 31.304L78.8928 31.496C78.7008 31.592 78.6048 31.688 78.7488 31.832C78.5568 31.976 78.3648 32.072 78.3168 32.408V32.456C78.2688 32.6 78.0768 32.792 78.0288 32.84C77.8368 33.032 77.5968 33.224 77.4048 33.368L76.4928 34.088C76.1088 34.28 75.8208 34.472 75.4848 34.712C75.0528 34.952 74.6688 35.288 74.1888 35.48C73.9008 35.624 73.5648 35.624 73.2288 35.672C73.0368 35.672 72.9408 35.72 72.7968 35.816C72.6048 35.912 72.3168 35.96 72.0768 36.008C71.6928 36.104 71.3568 36.2 70.9728 36.152C70.4928 36.104 69.9648 36.008 69.5328 35.864C69.1008 35.72 68.9088 35.672 68.4288 35.288C68.3808 35.192 68.2368 35.144 68.1888 35.096C67.8528 34.856 67.6608 34.568 67.3727 34.136C67.2767 34.04 67.2767 34.04 67.1807 33.56C66.9407 32.984 66.9887 32.648 66.9887 32.312C67.0367 31.352 67.2767 30.44 67.7568 29.528C67.9488 29.24 68.1408 28.952 68.3808 28.664C68.8128 28.136 69.2448 27.656 69.6768 27.176C70.1088 26.744 70.6367 26.456 71.2608 26.408C71.4048 26.408 71.5488 26.36 71.7408 26.312C72.2208 26.12 72.6528 26.456 72.9888 26.648C73.4208 26.84 73.8047 27.128 74.1408 27.416C74.5247 27.656 74.7648 28.472 74.6208 28.856C74.5247 29.096 74.3808 29.336 74.2368 29.48C73.8047 29.96 73.3728 30.392 72.9408 30.824C72.7968 30.968 72.5088 31.016 72.4608 31.16C72.4128 31.496 72.0768 31.544 71.8848 31.64L71.2128 32.12C71.1648 32.168 71.1648 32.312 71.1168 32.36C70.7808 32.552 70.3968 32.696 70.1088 32.888C69.9648 32.936 69.8688 33.08 69.7728 33.176C69.3888 33.368 69.2448 33.416 68.9088 33.608C69.1008 34.184 69.1968 34.28 69.5808 34.424C70.2048 34.376 70.8288 34.424 71.4528 34.328C71.8848 34.28 72.3168 34.088 72.7488 33.944C73.0848 33.8 73.4688 33.608 73.8528 33.464C74.0928 33.368 74.3328 33.368 74.5728 33.224L76.1568 32.312L76.3008 32.216C76.7328 31.928 77.6448 31.4 78.1248 31.112C78.3168 31.016 78.6048 30.872 78.7008 30.776L80.3328 29.576L80.4288 29.912C80.4288 29.912 80.4768 29.912 80.4768 29.96C80.3328 30.056 80.2368 30.2 80.0928 30.296ZM69.1968 30.68C69.0527 30.968 68.9568 31.304 68.8608 31.688C69.2448 31.448 69.4848 31.304 69.6768 31.16L70.9728 30.104L72.2688 28.952C72.5568 28.712 72.7488 28.424 72.9408 28.088C73.0848 27.848 72.8448 27.416 72.6528 27.512C72.2208 27.704 71.7888 27.704 71.4048 27.992C70.9728 28.328 70.5408 28.568 70.2048 29C69.8208 29.528 69.4848 30.104 69.1968 30.68ZM75.3497 35.864C75.0617 35.72 75.0137 35.528 74.6297 35.336C74.4377 34.856 74.1977 34.376 74.3417 33.752L74.7257 31.784C74.8217 31.256 75.0137 30.728 75.0137 30.2C75.1097 29.528 75.3497 28.856 75.4457 28.232C75.5417 27.56 75.6857 26.936 75.7817 26.264C75.8297 26.168 75.8297 25.976 75.8777 25.928C75.9737 25.784 76.1657 25.688 76.3097 25.688C76.7897 25.496 77.1737 25.736 77.3657 26.456C77.5097 26.84 77.5577 27.272 77.5097 27.704C77.5097 27.848 77.4137 27.992 77.4137 28.232C77.5577 28.04 77.7497 27.896 77.7977 27.752C78.0377 27.32 78.3257 27.08 78.6617 26.744C79.0937 26.12 79.6217 25.736 80.1497 25.4C80.7737 24.92 81.4457 24.92 82.0217 25.256C82.2617 25.448 82.5017 25.64 82.6937 25.832C82.7417 25.88 82.7897 25.976 82.8857 25.976C83.0777 26.12 83.1737 26.312 83.2697 26.552L83.2217 26.792C83.2217 26.792 82.9337 26.936 82.3097 26.648C82.0217 26.648 81.7337 26.6 81.4457 26.84C81.2537 27.08 80.9657 27.176 80.6777 27.368C80.5337 27.416 80.4377 27.608 80.3417 27.752C80.0537 27.992 79.7657 28.232 79.5257 28.472L78.6137 29.672C78.2777 30.152 77.8937 30.632 77.5577 31.208C77.2697 31.88 76.8857 32.408 76.5977 32.984C76.4057 33.464 76.3577 33.896 76.2137 34.328C76.1177 34.664 76.1177 35 76.0217 35.336C75.9257 35.912 75.7337 36.008 75.3497 35.864ZM93.9265 33.272L94.0225 33.848C93.7825 34.232 93.3505 34.712 93.2545 34.904C93.1105 35 92.8705 35.288 92.7745 35.288C92.4385 35.528 92.1025 35.576 91.7185 35.96L90.7105 36.536L88.5985 38.12L87.5905 38.648L87.3025 38.696C87.2065 39.032 87.1105 39.32 86.8225 39.608C86.6785 39.704 86.7265 40.136 86.5825 40.184C86.5345 40.376 86.4385 40.472 86.4385 40.664H86.5345C86.4385 40.664 85.7185 45.464 85.6705 45.752C85.5745 46.136 85.4785 47.72 85.1425 47.96C85.2385 48.296 85.0465 48.392 84.9985 48.296H84.9505L84.7105 49.832C84.6145 49.928 84.1345 51.08 84.0385 51.512L83.2705 54.92L81.2065 59.24L80.3425 61.256L79.4785 62.552L78.9985 63.32C78.7585 63.416 78.3745 63.656 77.8945 63.848C77.5105 64.184 76.6465 64.808 76.6945 64.808C76.2145 65.192 74.9665 65.096 74.3905 65.24C74.1025 65.288 73.6225 65.288 73.2865 65.144C71.7985 64.856 70.9345 64.088 70.0705 62.888C69.8785 62.456 69.5425 61.88 69.3025 61.304C68.8225 60.584 68.6785 59.72 68.9665 58.856C68.9665 58.472 68.9665 58.328 68.9185 58.184C69.0625 57.416 69.1585 56.792 69.1585 56.264C69.5425 54.632 70.2145 53.048 71.0785 51.56C71.8945 50.168 72.8065 48.872 73.7185 47.672C74.5825 46.52 75.6865 45.464 76.6945 44.408C77.7985 43.496 78.9025 42.488 80.0545 41.624C80.6785 41.144 81.3505 40.664 81.8785 40.28C82.4065 39.896 82.8385 39.752 83.1265 39.416C83.5585 39.176 84.0385 38.792 84.3745 38.648C84.9025 38.36 84.8545 38.024 84.8545 37.592C84.9505 37.112 85.1425 36.728 85.0945 36.248C85.2385 35.528 85.3345 34.952 85.3825 34.328C85.6225 33.272 85.7665 32.36 85.8145 31.496C85.7665 31.16 85.9105 30.872 85.9585 30.584L85.6225 30.488C84.9025 30.92 84.3265 31.64 83.5585 32.312C82.9825 32.552 82.6465 33.08 82.0705 33.368C81.6865 33.656 81.4465 33.944 81.0625 34.04C80.8225 34.04 79.7185 33.464 79.7665 33.368C79.6225 33.08 79.4305 32.696 79.3345 32.408C79.2865 31.88 79.6705 31.64 79.6705 31.256C79.8625 30.68 79.9105 29.864 80.0065 29.24C80.0545 28.904 80.1025 28.376 80.2945 27.944C80.3905 27.656 80.3905 27.368 80.2465 27.08C80.1025 26.936 80.1985 26.648 80.1985 26.504C80.3905 26.312 80.4865 26.168 80.8225 26.168C81.0625 26.264 81.0625 26.216 81.3985 26.408C81.6385 26.552 82.0225 26.984 82.3105 27.224C82.3105 27.224 82.4065 27.368 82.3105 27.56C82.1665 27.8 82.3105 28.232 82.1665 28.76C82.0705 29.096 81.9265 29.768 81.7345 30.344C81.7345 30.728 81.6865 30.92 81.5425 31.304C81.7825 31.16 82.1665 30.92 82.2625 30.776C82.6945 30.536 82.9825 29.96 83.3665 29.672C83.8465 29.384 84.1345 28.952 84.5665 28.664C85.1425 28.184 85.5745 27.704 86.1505 27.416C86.4385 27.08 86.5345 26.936 86.8705 27.128C86.9665 27.32 87.2545 27.32 87.4465 27.32C87.5425 27.32 87.7345 27.416 87.8305 27.416V27.512L87.9265 27.848C88.2625 27.992 88.0705 28.184 88.4545 28.184L88.3585 28.712C88.3105 29.048 88.1665 29.864 88.1185 30.008V30.104C88.1665 30.632 87.8305 31.4 87.8785 31.688C87.7345 32.024 87.7825 32.408 87.7345 32.744C87.7345 32.888 87.6385 33.08 87.6385 33.08C87.4465 33.224 87.3985 33.464 87.4945 33.704C87.7345 34.088 87.4465 34.568 87.4945 35C87.4465 35.096 87.2065 35.48 87.2065 35.576C87.1105 36.008 87.1105 36.344 87.0145 36.776L86.9185 36.872C87.0145 37.016 87.1585 37.016 87.2545 36.872C88.2625 36.296 89.0785 35.912 89.7505 35.336C90.3265 35.048 90.5665 34.904 91.2865 34.52L92.2465 34.088C92.6305 34.04 93.7345 33.272 93.9265 33.272ZM84.2305 42.056C84.2305 41.72 84.2305 41.336 84.3745 41.048C84.0865 41.144 83.8465 41.144 83.8465 41.384C83.6065 41.768 83.3185 42.104 82.9345 42.104V42.248C82.6945 42.392 82.5025 42.584 82.4065 42.584C82.2625 42.776 81.9745 42.872 81.7825 43.064C81.4465 43.496 80.9185 43.976 80.2465 44.12C80.2465 44.12 80.1025 44.12 80.1025 44.264C79.9585 44.456 79.8625 44.696 79.6225 44.792C79.4785 45.032 79.2385 45.272 79.2865 45.32C79.2385 45.32 79.0945 45.32 78.8545 45.464C78.7585 45.464 78.7105 45.704 78.5665 45.848C78.4225 45.848 78.2305 45.992 78.2785 46.088C77.8945 46.376 77.5585 46.952 77.0785 47.048L76.8385 47.192H77.0785C77.0305 47.384 76.7905 47.384 76.8385 47.528C76.7425 47.816 76.4545 48.008 76.3105 48.104C76.3105 48.248 76.2145 48.392 75.9265 48.392C75.8305 48.776 75.6385 48.776 75.5905 49.208C75.5905 49.4 75.4465 49.4 75.3025 49.4C74.9665 49.976 74.3905 50.408 74.1025 51.08C74.0065 51.32 73.7185 51.8 73.6225 52.04C73.5265 52.28 73.2865 52.664 73.0465 52.568L72.9025 52.664C73.0465 52.664 73.0465 52.856 73.1905 52.856C73.0465 52.952 72.9505 53.144 72.7105 53.48C72.4225 53.624 72.4705 54.056 72.1345 54.248C71.8945 54.584 71.8465 54.968 71.7985 55.304C71.5585 55.592 71.5105 56.024 71.3665 56.36C71.3665 56.552 71.3185 57.08 71.0785 57.32C70.7905 57.992 70.8385 58.52 70.8385 59.096C70.8385 59.624 70.9345 60.056 71.1265 60.68L70.9345 60.968V61.4C71.1265 61.352 71.1265 61.352 71.1265 61.592C71.2705 61.688 71.3185 61.784 71.5105 61.928C71.5105 62.312 71.5585 62.552 71.7505 62.696C71.7505 62.936 71.8465 63.176 72.1345 63.32C72.1345 63.32 72.1345 63.416 72.1825 63.56H72.2785L72.4225 63.656C73.0945 64.04 73.9105 63.992 74.6305 63.608C75.4465 63.464 76.2625 62.792 76.8865 62.216C77.6065 61.496 78.4225 60.728 78.7105 59.816C79.1905 58.856 79.6225 58.136 80.0545 57.32C80.2945 56.744 80.3905 56.168 80.6785 55.592C81.2065 53.912 81.9745 52.232 82.5025 50.552C82.5985 50.12 82.8385 49.16 83.0785 48.392H82.9345C82.9345 48.104 83.1745 48.008 83.1265 47.912C83.2705 47 83.4145 46.184 83.6545 45.32C83.7025 44.36 83.8945 43.112 84.2305 42.056ZM99.3175 36.632C98.3575 36.584 97.7335 36.056 97.5895 35.096C97.5415 34.52 97.3975 34.04 97.3015 33.56C97.3015 33.176 97.3015 32.744 97.2055 32.312C97.2055 32.024 97.1095 31.832 97.1095 31.592C97.1575 30.968 97.2055 30.392 97.1095 29.816C97.1575 28.952 97.3495 28.664 97.3975 27.8C97.4455 27.704 97.4455 27.272 97.5415 27.08C97.5895 27.032 97.6375 26.792 97.6375 26.744C97.7335 26.456 97.8295 24.92 97.8775 24.632C97.6855 24.728 97.2055 25.016 97.1095 25.112C96.7735 25.352 96.2455 25.784 96.0055 25.688C95.6695 25.448 95.6695 24.68 95.7175 24.248C95.7655 23.768 96.0055 23.672 96.2455 23.576C96.7735 23.144 97.0135 23.048 97.2535 22.76C97.5415 22.664 97.6375 22.472 97.9735 22.328C98.0695 22.184 98.1175 21.848 98.1655 21.656C98.2135 21.56 98.2135 21.464 98.5015 20.6C98.5015 20.072 99.0775 18.488 99.1255 18.152C99.4135 17.432 99.6535 16.76 99.8935 16.04C100.229 15.224 100.709 14.408 100.997 13.544C101.429 12.632 101.861 11.576 102.341 10.616C102.725 9.8 103.205 8.984 103.685 8.168C103.877 7.688 104.213 7.16 104.597 6.632C104.933 5.96 105.413 5.336 105.893 4.616C106.709 3.512 107.717 2.552 108.725 1.592C109.637 1.016 110.645 0.343997 111.653 0.535997C112.325 0.727998 112.949 0.919998 113.477 1.256C113.813 1.352 114.005 1.496 114.101 1.736C114.485 2.36 114.725 2.648 114.581 3.416C114.437 4.136 114.389 4.904 114.149 5.672C113.957 6.536 113.525 7.304 113.189 8.168C112.949 8.792 112.517 9.464 112.181 10.088C111.749 10.952 111.317 11.72 110.789 12.44C110.453 13.064 110.021 13.592 109.589 14.12C109.109 14.744 108.485 15.32 108.101 15.944C107.621 16.424 107.237 16.808 106.901 17.336C106.181 18.008 105.509 18.728 104.885 19.352C104.213 19.928 103.493 20.456 102.821 20.984C102.341 21.32 101.909 21.752 101.573 22.04C101.045 22.328 100.709 22.472 100.277 22.664C100.037 22.904 99.6055 24.296 99.7015 24.344C99.5095 25.112 99.2695 26.984 99.1255 27.704C99.1255 27.704 99.2695 27.704 99.3175 27.656C99.6535 27.32 99.9895 26.984 100.421 26.648C100.565 26.6 100.805 26.504 100.997 26.408C101.573 26.216 102.149 26.264 102.725 26.36C103.589 26.408 104.213 26.648 104.981 27.032C105.941 27.608 106.133 27.992 105.845 29.096C105.605 30.632 104.789 31.784 104.069 32.888C103.589 33.416 103.205 33.944 102.629 34.472C101.861 35.144 101.237 36.056 100.229 36.344C99.8935 36.44 99.6535 36.632 99.3175 36.632ZM100.661 20.168H100.709C100.853 20.12 100.901 20.072 101.045 19.976C102.053 19.064 103.013 18.2 104.021 17.192C104.741 16.52 105.317 15.848 105.845 15.128C106.901 13.976 107.861 12.872 108.725 11.624C109.829 9.896 111.029 8.072 111.797 6.056C112.133 5.048 112.373 4.136 112.325 3.128C112.373 2.984 112.277 2.696 112.229 2.504C112.037 2.264 111.845 2.072 111.269 2.168C110.933 2.312 110.789 2.36 110.405 2.696C109.445 3.272 109.301 3.608 108.581 4.28L107.909 5.288C107.621 5.768 107.285 6.344 106.853 6.872C106.613 7.448 106.181 8.072 105.797 8.552C105.557 9.032 105.317 9.32 105.077 9.896C104.741 10.568 104.357 11.288 104.117 11.864C103.493 12.872 102.917 13.832 102.581 15.224C102.533 15.416 102.389 15.512 102.245 15.848C101.765 16.616 101.525 17.96 101.429 18.488C101.141 19.064 100.853 19.688 100.661 20.168ZM99.5095 34.808C100.085 34.328 100.661 33.848 101.189 33.32C101.813 32.6 102.293 31.88 102.965 31.208C103.301 30.632 103.781 29.576 103.925 28.904C104.069 28.424 103.685 28.04 103.301 27.8C103.109 27.704 102.821 27.656 102.485 27.752H102.389C101.525 27.896 101.093 28.232 100.469 28.856C100.373 28.952 99.5095 29.576 99.4135 29.768C99.2215 29.96 98.9815 30.152 99.0295 30.68L98.8855 32.36V32.408C98.9335 33.08 98.9335 33.944 98.9815 34.616C99.1255 34.856 99.4615 34.952 99.5095 34.808ZM118.339 33.272L118.435 33.848C118.195 34.232 117.763 34.712 117.667 34.904C117.523 35 117.283 35.288 117.187 35.288C116.851 35.528 116.515 35.576 116.131 35.96L115.123 36.536L113.011 38.12L112.003 38.648L111.715 38.696C111.619 39.032 111.523 39.32 111.235 39.608C111.091 39.704 111.139 40.136 110.995 40.184C110.947 40.376 110.851 40.472 110.851 40.664H110.947C110.851 40.664 110.131 45.464 110.083 45.752C109.987 46.136 109.891 47.72 109.555 47.96C109.651 48.296 109.459 48.392 109.411 48.296H109.363L109.123 49.832C109.027 49.928 108.547 51.08 108.451 51.512L107.683 54.92L105.619 59.24L104.755 61.256L103.891 62.552L103.411 63.32C103.171 63.416 102.787 63.656 102.307 63.848C101.923 64.184 101.059 64.808 101.107 64.808C100.627 65.192 99.379 65.096 98.803 65.24C98.515 65.288 98.035 65.288 97.699 65.144C96.211 64.856 95.347 64.088 94.483 62.888C94.291 62.456 93.955 61.88 93.715 61.304C93.235 60.584 93.091 59.72 93.379 58.856C93.379 58.472 93.379 58.328 93.331 58.184C93.475 57.416 93.571 56.792 93.571 56.264C93.955 54.632 94.627 53.048 95.491 51.56C96.307 50.168 97.219 48.872 98.131 47.672C98.995 46.52 100.099 45.464 101.107 44.408C102.211 43.496 103.315 42.488 104.467 41.624C105.091 41.144 105.763 40.664 106.291 40.28C106.819 39.896 107.251 39.752 107.539 39.416C107.971 39.176 108.451 38.792 108.787 38.648C109.315 38.36 109.267 38.024 109.267 37.592C109.363 37.112 109.555 36.728 109.507 36.248C109.651 35.528 109.747 34.952 109.795 34.328C110.035 33.272 110.179 32.36 110.227 31.496C110.179 31.16 110.323 30.872 110.371 30.584L110.035 30.488C109.315 30.92 108.739 31.64 107.971 32.312C107.395 32.552 107.059 33.08 106.483 33.368C106.099 33.656 105.859 33.944 105.475 34.04C105.235 34.04 104.131 33.464 104.179 33.368C104.035 33.08 103.843 32.696 103.747 32.408C103.699 31.88 104.083 31.64 104.083 31.256C104.275 30.68 104.323 29.864 104.419 29.24C104.467 28.904 104.515 28.376 104.707 27.944C104.803 27.656 104.803 27.368 104.659 27.08C104.515 26.936 104.611 26.648 104.611 26.504C104.803 26.312 104.899 26.168 105.235 26.168C105.475 26.264 105.475 26.216 105.811 26.408C106.051 26.552 106.435 26.984 106.723 27.224C106.723 27.224 106.819 27.368 106.723 27.56C106.579 27.8 106.723 28.232 106.579 28.76C106.483 29.096 106.339 29.768 106.147 30.344C106.147 30.728 106.099 30.92 105.955 31.304C106.195 31.16 106.579 30.92 106.675 30.776C107.107 30.536 107.395 29.96 107.779 29.672C108.259 29.384 108.547 28.952 108.979 28.664C109.555 28.184 109.987 27.704 110.563 27.416C110.851 27.08 110.947 26.936 111.283 27.128C111.379 27.32 111.667 27.32 111.859 27.32C111.955 27.32 112.147 27.416 112.243 27.416V27.512L112.339 27.848C112.675 27.992 112.483 28.184 112.867 28.184L112.771 28.712C112.723 29.048 112.579 29.864 112.531 30.008V30.104C112.579 30.632 112.243 31.4 112.291 31.688C112.147 32.024 112.195 32.408 112.147 32.744C112.147 32.888 112.051 33.08 112.051 33.08C111.859 33.224 111.811 33.464 111.907 33.704C112.147 34.088 111.859 34.568 111.907 35C111.859 35.096 111.619 35.48 111.619 35.576C111.523 36.008 111.523 36.344 111.427 36.776L111.331 36.872C111.427 37.016 111.571 37.016 111.667 36.872C112.675 36.296 113.491 35.912 114.163 35.336C114.739 35.048 114.979 34.904 115.699 34.52L116.659 34.088C117.043 34.04 118.147 33.272 118.339 33.272ZM108.643 42.056C108.643 41.72 108.643 41.336 108.787 41.048C108.499 41.144 108.259 41.144 108.259 41.384C108.019 41.768 107.731 42.104 107.347 42.104V42.248C107.107 42.392 106.915 42.584 106.819 42.584C106.675 42.776 106.387 42.872 106.195 43.064C105.859 43.496 105.331 43.976 104.659 44.12C104.659 44.12 104.515 44.12 104.515 44.264C104.371 44.456 104.275 44.696 104.035 44.792C103.891 45.032 103.651 45.272 103.699 45.32C103.651 45.32 103.507 45.32 103.267 45.464C103.171 45.464 103.123 45.704 102.979 45.848C102.835 45.848 102.643 45.992 102.691 46.088C102.307 46.376 101.971 46.952 101.491 47.048L101.251 47.192H101.491C101.443 47.384 101.203 47.384 101.251 47.528C101.155 47.816 100.867 48.008 100.723 48.104C100.723 48.248 100.627 48.392 100.339 48.392C100.243 48.776 100.051 48.776 100.003 49.208C100.003 49.4 99.859 49.4 99.715 49.4C99.379 49.976 98.803 50.408 98.515 51.08C98.419 51.32 98.131 51.8 98.035 52.04C97.939 52.28 97.699 52.664 97.459 52.568L97.315 52.664C97.459 52.664 97.459 52.856 97.603 52.856C97.459 52.952 97.363 53.144 97.123 53.48C96.835 53.624 96.883 54.056 96.547 54.248C96.307 54.584 96.259 54.968 96.211 55.304C95.971 55.592 95.923 56.024 95.779 56.36C95.779 56.552 95.731 57.08 95.491 57.32C95.203 57.992 95.251 58.52 95.251 59.096C95.251 59.624 95.347 60.056 95.539 60.68L95.347 60.968V61.4C95.539 61.352 95.539 61.352 95.539 61.592C95.683 61.688 95.731 61.784 95.923 61.928C95.923 62.312 95.971 62.552 96.163 62.696C96.163 62.936 96.259 63.176 96.547 63.32C96.547 63.32 96.547 63.416 96.595 63.56H96.691L96.835 63.656C97.507 64.04 98.323 63.992 99.043 63.608C99.859 63.464 100.675 62.792 101.299 62.216C102.019 61.496 102.835 60.728 103.123 59.816C103.603 58.856 104.035 58.136 104.467 57.32C104.707 56.744 104.803 56.168 105.091 55.592C105.619 53.912 106.387 52.232 106.915 50.552C107.011 50.12 107.251 49.16 107.491 48.392H107.347C107.347 48.104 107.587 48.008 107.539 47.912C107.683 47 107.827 46.184 108.067 45.32C108.115 44.36 108.307 43.112 108.643 42.056ZM137.17 12.344C146.146 9.176 152.626 15.416 146.386 21.848L145.954 22.088C145.858 22.088 145.81 22.136 145.81 22.184C145.714 22.904 145.09 23.24 144.706 23.768C144.418 24.008 144.034 24.248 143.65 24.536C143.554 24.584 143.41 24.584 143.266 24.584C143.17 25.064 142.738 25.352 142.354 25.688C142.066 25.976 141.682 26.168 141.298 26.408C139.858 27.224 138.562 28.04 136.786 29.096V29.192C139.378 28.904 141.826 29.576 143.65 31.4C145.474 33.224 145.666 36.104 143.698 38.504C143.506 38.696 143.314 38.888 143.122 38.984C143.074 39.128 143.122 39.224 143.074 39.224C142.258 39.944 141.49 40.472 140.53 41C138.802 41.96 137.794 42.2 136.018 42.488C135.25 42.632 134.482 42.584 133.714 42.68C133.666 42.728 133.186 42.68 133.138 42.68C132.514 42.632 131.314 42.632 130.93 42.536C130.498 42.488 130.066 42.392 129.73 42.296C129.202 42.152 128.818 42.056 128.338 41.864C128.002 41.768 127.57 41.672 126.994 41.624C126.802 42.248 127.138 42.824 126.274 43.304C125.986 43.304 126.082 43.112 125.986 42.968C125.41 42.152 125.314 41 125.362 39.992C125.362 38.312 125.65 36.584 125.89 34.952C126.082 34.136 126.178 33.32 126.466 32.504C126.706 31.976 126.466 31.448 126.85 30.92C127.186 30.488 127.234 29.816 127.474 29.288C128.146 27.512 128.674 25.736 129.49 24.056C129.97 23.144 130.306 22.184 131.026 21.416C131.746 21.368 132.13 21.56 132.514 22.184C132.706 22.76 131.362 25.448 129.298 30.104C130.546 29.816 134.53 28.424 136.114 27.56C138.898 26.072 141.394 24.248 143.794 22.088C144.802 21.176 145.714 20.12 146.386 18.968C149.074 14.552 144.418 12.44 138.418 14.408C135.106 15.464 130.69 17.96 128.146 20.504C127.042 21.56 126.13 22.664 125.17 23.864C124.882 24.2 124.738 24.584 124.69 25.016C124.642 25.304 124.834 25.448 125.122 25.496C125.362 25.592 125.65 25.592 126.13 25.688C125.602 26.024 125.218 26.216 124.834 26.264C122.434 26.216 122.146 23.72 122.962 22.472C125.458 18.536 131.746 14.264 137.17 12.344ZM138.994 30.872C135.25 30.344 132.658 31.304 130.258 31.88C129.682 32.024 128.914 32.264 128.674 32.312C128.482 32.744 128.386 33.128 128.242 33.704C128.05 34.424 127.138 37.928 127.138 39.032C127.138 39.992 128.434 40.376 128.77 40.472C129.682 40.712 131.794 41.288 133.858 41.144C136.786 40.952 139.09 40.28 141.25 38.072C142.546 36.728 143.266 34.568 142.354 32.888C141.682 31.688 140.722 31.112 138.994 30.872Z" fill="#DF928E"/>
</svg>
