<svg width="196" height="83" viewBox="0 0 196 83" fill="none" xmlns="http://www.w3.org/2000/svg">
<path d="M43.52 22.344C38.096 24.264 31.808 28.536 29.312 32.472C28.496 33.72 28.784 36.216 31.184 36.264C31.568 36.216 31.952 36.024 32.48 35.688C32 35.592 31.712 35.592 31.472 35.496C31.184 35.448 30.992 35.304 31.04 35.016C31.088 34.584 31.232 34.2 31.52 33.864C32.48 32.664 33.392 31.56 34.496 30.504C37.04 27.96 41.456 25.464 44.768 24.408C50.768 22.44 55.424 24.552 52.736 28.968C52.064 30.12 51.152 31.176 50.144 32.088C47.744 34.248 45.248 36.072 42.464 37.56C40.88 38.424 36.896 39.816 35.648 40.104C37.712 35.448 39.056 32.76 38.864 32.184C38.48 31.56 38.096 31.368 37.376 31.416C36.656 32.184 36.32 33.144 35.84 34.056C35.024 35.736 34.496 37.512 33.824 39.288C33.584 39.816 33.536 40.488 33.2 40.92C32.816 41.448 33.056 41.976 32.816 42.504C32.528 43.32 32.432 44.136 32.24 44.952C32 46.584 31.712 48.312 31.712 49.992C31.664 51 31.76 52.152 32.336 52.968C32.432 53.112 32.336 53.304 32.624 53.304C33.488 52.824 33.152 52.248 33.344 51.624C33.92 51.672 34.352 51.768 34.688 51.864C35.168 52.056 35.552 52.152 36.08 52.296C36.416 52.392 36.848 52.488 37.28 52.536C37.664 52.632 38.864 52.632 39.488 52.68C39.536 52.68 40.016 52.728 40.064 52.68C40.832 52.584 41.6 52.632 42.368 52.488C44.144 52.2 45.152 51.96 46.88 51C47.84 50.472 48.608 49.944 49.424 49.224C49.472 49.224 49.424 49.128 49.472 48.984C49.664 48.888 49.856 48.696 50.048 48.504C52.016 46.104 51.824 43.224 50 41.4C48.176 39.576 45.728 38.904 43.136 39.192V39.096C44.912 38.04 46.208 37.224 47.648 36.408C48.032 36.168 48.416 35.976 48.704 35.688C49.088 35.352 49.52 35.064 49.616 34.584C49.76 34.584 49.904 34.584 50 34.536C50.384 34.248 50.768 34.008 51.056 33.768C51.44 33.24 52.064 32.904 52.16 32.184C52.16 32.136 52.208 32.088 52.304 32.088L52.736 31.848C58.976 25.416 52.496 19.176 43.52 22.344ZM45.344 40.872C47.072 41.112 48.032 41.688 48.704 42.888C49.616 44.568 48.896 46.728 47.6 48.072C45.44 50.28 43.136 50.952 40.208 51.144C38.144 51.288 36.032 50.712 35.12 50.472C34.784 50.376 33.488 49.992 33.488 49.032C33.488 47.928 34.4 44.424 34.592 43.704C34.736 43.128 34.832 42.744 35.024 42.312C35.264 42.264 36.032 42.024 36.608 41.88C39.008 41.304 41.6 40.344 45.344 40.872ZM67.1889 38.616L66.9969 38.184L66.8529 38.088C66.3729 38.376 65.9889 38.616 65.6529 38.904C64.5489 39.624 64.6449 39.528 63.4929 40.248C62.8209 40.728 62.1009 41.16 61.4769 41.544C60.8049 42.024 60.0369 42.6 59.2689 42.936C59.0769 43.032 58.8849 43.032 58.7409 43.08C58.5969 43.128 58.5009 43.128 58.4049 43.08C58.1649 42.936 58.0209 42.744 57.9729 42.552C57.6849 41.88 57.6849 41.16 57.8289 40.488C57.8769 40.392 57.8769 40.296 57.9249 40.248C58.0689 39.864 58.0209 39.336 58.0209 39.336C57.9249 39 57.7329 38.76 57.4449 38.664C56.8689 38.616 56.5329 39 56.1489 39.048C56.3889 38.568 56.7729 38.136 56.6289 37.464C56.4369 36.36 55.2849 36.168 54.2769 35.976C53.3649 36.072 52.5489 36.648 51.9729 37.272C51.3969 37.992 50.7729 38.568 50.2449 39.384C50.1489 39.48 50.0529 39.72 49.8609 39.96L49.5249 40.536C49.4289 40.872 49.2849 41.112 49.2369 41.4C49.2369 41.448 49.2369 41.448 49.1889 41.496C49.0929 41.784 48.9969 42.024 48.8529 42.36C48.6609 43.08 48.8049 43.704 49.2369 44.28C49.5249 44.424 49.9089 44.664 50.0049 44.76C50.1489 44.808 50.2929 44.808 50.3889 44.808C51.1089 45.096 51.9249 45.096 52.6929 44.712C53.4609 44.376 54.2289 43.752 54.8049 43.32C54.9009 43.272 54.9489 43.128 55.0449 43.032C55.3809 43.032 55.3809 42.552 55.7169 42.36C55.7649 42.456 55.7649 42.552 55.8609 42.6C56.0049 42.84 55.9569 42.936 56.2449 43.224C56.4369 43.656 56.7729 43.848 57.0609 44.232C57.2049 44.28 57.3009 44.472 57.4449 44.52C57.5409 44.616 57.8289 44.616 57.9249 44.664C58.1169 44.712 58.5489 44.616 58.7409 44.616C58.8849 44.616 59.1249 44.52 59.1729 44.52C59.3169 44.52 59.5569 44.424 59.6529 44.376C59.8929 44.232 60.0369 44.28 60.3249 44.136C60.8049 43.8 61.2369 43.704 61.6209 43.272L62.7729 42.408L63.4929 41.784C63.6369 41.736 63.9729 41.352 64.0209 41.304C64.2609 41.208 64.4529 40.968 64.5969 40.824C64.7409 40.728 65.0769 40.584 65.3169 40.392C65.9409 39.96 66.7089 39.336 67.1889 38.616ZM55.4769 39.96C54.7569 40.728 54.4209 41.304 53.7009 42.072C53.2209 42.6 52.7889 42.936 52.1649 43.176C51.6849 43.368 50.8209 43.416 50.2929 43.416C50.5329 42.456 50.9649 41.64 51.3969 40.872C51.9249 39.96 53.6049 37.704 55.0449 37.464C54.9969 37.512 54.6129 39.624 55.6689 39.72H55.7169C55.7169 39.72 55.5249 39.96 55.4769 39.96ZM83.7125 14.856L83.6645 13.992L83.5205 13.704C83.6165 13.656 83.6645 13.512 83.6645 13.512C83.5205 13.128 83.8085 12.696 83.7125 12.312C83.3765 11.736 83.2805 11.16 82.7525 10.872C82.0805 10.392 81.2645 10.152 80.4965 10.344C79.4405 10.536 78.5285 10.92 77.8565 11.688C77.6645 11.976 77.4245 12.264 77.2325 12.504C77.0405 12.744 76.6565 12.984 76.6565 13.416C76.6565 13.464 76.6565 13.464 76.6085 13.512C76.4645 13.752 76.2245 13.992 76.0805 14.232C76.0325 14.232 75.9845 14.28 75.9845 14.328C75.7445 14.808 75.5525 15.24 75.2645 15.576C75.2165 15.624 75.2165 15.624 75.2165 15.72L74.7845 16.536C74.7365 16.728 74.5925 16.968 74.4005 17.208C74.2085 17.544 74.1605 17.832 74.0165 18.12C73.7285 18.648 73.5365 19.08 73.2965 19.512L72.8645 20.808C72.6725 21.096 72.5285 21.528 72.2885 22.248C71.8565 23.4 71.4245 24.504 71.1365 25.704C70.8485 26.52 70.1285 29.112 70.0805 29.256C69.9365 29.976 69.8405 30.6 69.6965 31.224C69.4565 32.088 69.3125 32.808 69.1205 33.624L68.6405 36.84C68.6405 37.032 68.5925 37.176 68.5445 37.272C68.5445 37.32 68.4485 37.512 68.4485 37.608C68.1125 38.424 68.1125 38.28 68.1125 38.328L67.3445 39.72L66.0485 41.544C65.8085 41.88 65.4245 42.12 65.2325 42.504C64.8485 42.84 64.6085 43.32 64.1765 43.656C63.7925 44.04 63.5525 44.184 63.1205 44.424C62.7845 44.616 62.2565 44.904 61.6325 44.616C61.6805 44.04 61.4405 43.512 61.7765 42.888C61.8725 42.792 61.8725 42.6 61.9205 42.456C61.9205 42.216 62.0645 41.592 62.2085 41.112C62.3045 40.968 62.3045 40.872 62.3045 40.776C62.3525 40.728 62.5445 40.344 62.6405 40.152C62.9765 39.432 63.5045 38.664 64.1285 38.136C64.3205 37.896 64.5605 37.8 64.8005 37.608C65.6165 37.32 66.0485 37.416 66.2405 37.896C66.3365 38.568 66.6245 38.856 67.2485 38.808H67.3445C68.8805 37.464 67.3925 36.312 67.3925 36.312C67.3925 36.312 64.6085 34.968 61.7285 38.184L61.4405 38.616C61.2485 38.856 61.0565 39.24 60.8165 39.72C60.7205 39.72 60.7205 39.768 60.7205 39.768C60.6245 40.008 60.3845 40.728 60.1925 41.208H60.0965V41.256C60.0005 41.832 59.9525 42.264 59.7605 42.792C59.6645 43.368 60.0485 43.752 60.1445 44.184C60.1925 44.376 60.1445 44.568 60.1925 44.664C60.3845 45 60.4805 45.384 60.6725 45.528C61.0085 45.768 61.3925 46.104 61.7285 46.152C62.4485 46.344 63.2165 46.392 63.9845 45.912C64.5125 45.624 64.9445 45.384 65.3765 45.096C65.7125 44.712 66.0965 44.328 66.4325 43.992C66.7205 43.608 66.8165 43.656 67.2965 42.984C67.3925 42.84 67.4885 42.6 67.5845 42.504L68.1125 41.736C68.2085 42.072 68.4485 42.648 68.5925 43.32L68.6405 43.512L68.7845 43.656C68.9765 44.184 69.2165 44.472 69.7925 44.904C70.3205 45.192 71.0405 45.432 71.7125 45.432C72.0485 45.432 72.3845 45.528 72.6725 45.528C72.9605 45.528 73.2005 45.528 73.4405 45.432C73.8725 45.384 74.2565 45.24 74.5925 45.096C75.0245 44.856 76.1765 44.568 76.6565 44.28C77.2325 43.752 77.2805 43.704 77.9525 43.176C77.9525 43.08 77.8085 43.032 77.8085 43.032C78.1925 42.696 78.3845 42.456 78.7205 42.12C78.6245 42.12 79.2485 41.304 79.2005 41.256C79.1045 41.256 79.1045 41.208 79.0085 41.256C78.7685 41.448 78.5285 41.544 78.2885 41.688C77.0885 42.216 75.9845 42.936 74.7845 43.368C74.0165 43.608 73.2965 43.848 72.6245 43.848C72.0005 43.896 71.7605 43.896 71.1365 43.704C70.9445 43.608 70.7525 43.512 70.5605 43.224C70.4645 43.176 70.3685 42.888 70.3685 42.84L70.2245 42.312L69.9845 40.632C69.9845 40.44 69.8405 40.2 69.9365 40.104C70.0805 39.864 70.1285 39.72 70.0325 39.624C70.1285 39.576 70.1285 39.432 70.1285 39.384V39.192C70.1285 39.096 70.1285 39 70.2245 38.856L72.3365 36.168C72.3845 36.072 72.4325 35.928 72.5285 35.88C72.6245 35.736 72.6245 35.64 72.7205 35.544C72.8165 35.544 72.8165 35.544 73.0565 35.304C73.2485 35.016 73.4405 34.776 73.6805 34.632C73.7765 34.488 74.0645 34.344 74.4005 33.768L74.7845 33.096C74.9285 33.144 75.0245 32.808 75.1205 32.856C75.1685 32.712 75.5045 32.088 75.7445 31.608C76.0325 31.224 76.4645 30.456 76.5125 30.456C76.8005 30.168 78.7685 27.48 78.5285 27.384L79.4405 26.28C79.6805 25.992 79.7765 25.848 79.8725 25.176H79.9685C80.0165 24.984 80.1605 24.792 80.2565 24.648L80.7845 24.072C80.9765 23.736 81.1685 23.256 81.1685 23.064C81.3605 22.872 81.4085 22.632 81.5045 22.2C81.6485 22.152 81.6965 22.104 81.7445 22.104C81.7445 21.864 81.7445 21.576 81.7925 21.336L81.8405 21.096V21.048C81.9365 21 82.0325 21 82.1765 21L82.4165 20.328C82.9445 20.088 82.8485 19.272 82.7045 18.984C82.7045 18.984 82.8485 18.936 82.8485 18.84C82.9925 18.168 83.1845 17.64 83.2805 17.064L83.5205 16.152C83.6645 15.816 83.8085 15.336 83.7125 14.856ZM81.8405 13.8C81.6485 14.76 81.4565 15.576 81.3125 16.536C81.2165 17.16 81.0245 17.784 80.7845 18.456L80.3525 19.416L79.5845 21.48C79.3445 22.056 79.0565 22.536 78.7205 23.064C78.2405 24.024 77.6645 24.936 77.1845 25.848C76.8965 26.28 76.5605 26.664 76.3685 27.096C76.0325 27.576 75.6965 28.152 75.3605 28.632L74.2565 30.168L73.3445 31.464C73.0085 31.848 72.7685 32.28 72.4805 32.568C72.0485 33.144 71.6165 33.768 71.1845 34.248C70.9925 34.488 70.8485 34.728 70.6565 34.92C70.6565 34.872 70.7045 34.296 70.8485 34.008L70.9925 33.336C71.1365 33.096 71.2325 32.808 71.3765 32.568C71.4245 32.52 71.3765 32.472 71.3765 32.376C71.3765 32.376 71.2325 32.328 71.2325 32.28C71.3765 31.992 71.1845 31.608 71.4725 31.224C71.4725 31.224 71.4725 31.176 71.5205 31.08C71.5685 30.936 71.6165 30.744 71.7605 30.504C71.6165 30.456 71.5205 30.168 71.5685 29.976C71.7125 29.64 71.9045 29.352 71.9525 29.016C72.1445 28.728 72.1925 28.344 72.2405 28.056C72.3365 27.576 72.5285 27.336 72.6725 26.856C72.7685 26.568 72.8165 26.28 72.9125 25.944C72.9125 25.848 72.8645 25.8 72.8645 25.704C73.2485 25.608 73.1525 25.08 73.3925 24.792L73.6805 23.736C73.8725 23.16 74.0645 22.584 74.3045 22.104C74.4005 21.768 74.4485 21.384 74.5445 21.096C74.6405 20.856 74.7365 20.76 74.9285 20.52C74.9765 20.328 75.0725 20.136 75.1205 19.848C75.3125 19.56 75.4565 19.272 75.6485 18.936C75.8405 18.648 75.9365 18.312 76.0805 17.976C76.2245 17.688 76.3685 17.352 76.4645 17.064C76.8005 16.632 77.0405 16.248 77.2325 15.912C77.3285 15.72 77.4725 15.48 77.6645 15.24C78.1445 14.52 78.6725 13.8 79.2485 13.224L80.1605 12.312C80.3045 12.216 80.4965 12.168 80.6405 11.976L80.9765 11.592C81.1685 11.448 81.3605 11.4 81.5525 11.352C81.6005 11.352 81.6485 11.448 81.6485 11.592C82.0325 12.312 81.9365 13.032 81.8405 13.8ZM90.5889 38.616L90.3969 38.184L90.2529 38.088C89.7729 38.376 89.3889 38.616 89.0529 38.904C87.9489 39.624 88.0449 39.528 86.8929 40.248C86.2209 40.728 85.5009 41.16 84.8769 41.544C84.2049 42.024 83.4369 42.6 82.6689 42.936C82.4769 43.032 82.2849 43.032 82.1409 43.08C81.9969 43.128 81.9009 43.128 81.8049 43.08C81.5649 42.936 81.4209 42.744 81.3729 42.552C81.0849 41.88 81.0849 41.16 81.2289 40.488C81.2769 40.392 81.2769 40.296 81.3249 40.248C81.4689 39.864 81.4209 39.336 81.4209 39.336C81.3249 39 81.1329 38.76 80.8449 38.664C80.2689 38.616 79.9329 39 79.5489 39.048C79.7889 38.568 80.1729 38.136 80.0289 37.464C79.8369 36.36 78.6849 36.168 77.6769 35.976C76.7649 36.072 75.9489 36.648 75.3729 37.272C74.7969 37.992 74.1729 38.568 73.6449 39.384C73.5489 39.48 73.4529 39.72 73.2609 39.96L72.9249 40.536C72.8289 40.872 72.6849 41.112 72.6369 41.4C72.6369 41.448 72.6369 41.448 72.5889 41.496C72.4929 41.784 72.3969 42.024 72.2529 42.36C72.0609 43.08 72.2049 43.704 72.6369 44.28C72.9249 44.424 73.3089 44.664 73.4049 44.76C73.5489 44.808 73.6929 44.808 73.7889 44.808C74.5089 45.096 75.3249 45.096 76.0929 44.712C76.8609 44.376 77.6289 43.752 78.2049 43.32C78.3009 43.272 78.3489 43.128 78.4449 43.032C78.7809 43.032 78.7809 42.552 79.1169 42.36C79.1649 42.456 79.1649 42.552 79.2609 42.6C79.4049 42.84 79.3569 42.936 79.6449 43.224C79.8369 43.656 80.1729 43.848 80.4609 44.232C80.6049 44.28 80.7009 44.472 80.8449 44.52C80.9409 44.616 81.2289 44.616 81.3249 44.664C81.5169 44.712 81.9489 44.616 82.1409 44.616C82.2849 44.616 82.5249 44.52 82.5729 44.52C82.7169 44.52 82.9569 44.424 83.0529 44.376C83.2929 44.232 83.4369 44.28 83.7249 44.136C84.2049 43.8 84.6369 43.704 85.0209 43.272L86.1729 42.408L86.8929 41.784C87.0369 41.736 87.3729 41.352 87.4209 41.304C87.6609 41.208 87.8529 40.968 87.9969 40.824C88.1409 40.728 88.4769 40.584 88.7169 40.392C89.3409 39.96 90.1089 39.336 90.5889 38.616ZM78.8769 39.96C78.1569 40.728 77.8209 41.304 77.1009 42.072C76.6209 42.6 76.1889 42.936 75.5649 43.176C75.0849 43.368 74.2209 43.416 73.6929 43.416C73.9329 42.456 74.3649 41.64 74.7969 40.872C75.3249 39.96 77.0049 37.704 78.4449 37.464C78.3969 37.512 78.0129 39.624 79.0689 39.72H79.1169C79.1169 39.72 78.9249 39.96 78.8769 39.96ZM102.985 39.768C103.321 39.432 104.088 38.328 104.137 38.136C104.137 37.992 104.137 37.944 104.088 37.848C103.993 37.848 103.944 37.848 103.897 37.944C103.369 38.232 102.793 38.568 102.168 38.856C100.681 39.72 99.4805 40.44 97.8965 41.256C97.4645 41.448 96.6965 42.12 96.1205 42.36C96.0725 42.264 96.1205 42.168 96.1205 42.024C96.1205 41.784 96.1685 41.256 96.2165 41.016C96.2165 40.392 96.1205 39.768 96.5525 39.24C96.5525 39.24 96.6005 39.192 96.5525 39.192C96.5525 38.664 96.7445 38.232 96.9365 37.752C97.0805 37.464 97.1765 37.032 97.3685 36.792C97.4165 36.648 97.5605 36.504 97.7045 36.36C97.8005 36.168 97.7045 36.312 98.0885 36.072C98.0885 36.072 98.4245 36.072 98.6165 35.928C99.1445 35.592 97.2725 35.016 96.6965 35.304C96.4085 35.352 96.1685 35.544 95.9765 35.736L95.6405 36.216L93.9125 37.656C92.6645 38.712 90.0245 40.488 88.7765 41.352C88.3445 41.64 87.0005 42.456 86.6165 42.696C86.5685 42.504 86.5205 42.072 86.5205 41.976C86.4245 41.352 86.4245 40.92 86.3765 40.296C86.2325 38.472 86.3765 36.84 87.9125 35.208C88.4405 34.776 88.9205 34.776 89.3525 35.208C89.8805 35.832 90.2645 35.352 90.2645 35.352L90.3125 35.112C90.2165 34.872 89.9285 34.008 89.0645 33.768C88.9205 33.672 88.7285 33.624 88.5365 33.624C88.3925 33.528 87.0965 33.672 86.5205 34.392C85.5125 35.4 84.8885 36.552 84.7925 37.8C84.5045 39.144 84.6965 40.44 84.8405 41.736C84.8885 42.456 85.0805 42.696 85.1765 43.464C84.6965 43.8 84.1205 44.04 83.6405 44.376C82.4405 45.24 81.2405 46.152 80.6165 47.88C80.1845 48.84 80.0405 49.656 80.5685 50.472C80.8565 50.808 81.0005 51.336 81.3365 51.576C81.7685 51.864 82.5845 52.008 83.4485 52.104C84.0245 52.008 84.4565 51.912 84.7925 51.624C85.2245 51.24 85.7045 50.856 86.0885 50.472C86.6645 49.8 87.0005 49.128 87.2405 48.072C87.3845 47.496 87.2885 46.872 87.2885 46.296C87.2405 45.672 87.1445 45.192 87.0485 44.424L87.0005 44.04C87.5765 43.56 88.4885 43.08 89.1605 42.6C90.0245 42.024 92.5685 40.392 93.2885 39.816C93.7685 39.432 94.2005 39.144 94.5845 38.856L94.4885 39.24V39.912C94.4405 40.152 94.4405 40.488 94.4405 40.824C94.4405 41.496 94.3925 42.216 94.3445 43.032C94.3925 43.272 94.3445 43.56 94.0565 43.656L93.6725 43.992L92.4725 45.144C92.0405 45.576 91.4645 46.104 91.0325 46.68C90.6005 47.256 90.2645 47.928 90.0245 48.648C89.9285 48.888 89.7365 49.224 89.6405 49.56C89.6405 49.608 89.5925 49.608 89.4965 49.704L89.4485 49.752C89.2565 50.472 89.3525 51.192 89.5925 51.816C89.7365 52.2 89.9285 52.584 90.1205 53.064C90.3125 53.4 90.5045 53.928 90.9365 54.168C90.9845 54.264 90.9845 54.312 91.0325 54.312C91.1285 54.456 91.3205 54.696 91.4165 54.792C91.6565 54.936 91.9445 55.032 92.2325 55.176C92.5205 55.272 92.8085 55.368 93.0965 55.32L93.5765 55.128C93.5765 55.032 93.5285 55.032 93.5285 54.984C93.6725 54.984 93.7685 54.984 93.9125 54.936C94.2965 54.408 94.5365 53.928 94.9205 53.4C94.9685 53.256 95.0645 53.112 95.0645 53.064C95.2565 52.728 95.4485 52.488 95.3045 52.2C95.4485 51.96 95.5445 51.816 95.5445 51.624C95.7365 50.76 95.9285 49.848 96.0245 48.984C96.0245 48.84 95.9765 48.744 95.9765 48.648C96.1685 48.504 96.0725 48.312 96.0725 48.168C96.0245 47.976 95.8805 47.784 95.8805 47.496C95.9285 47.304 96.0725 47.112 96.0725 46.92C96.0725 46.344 96.0725 45.816 96.1205 45.336C96.1205 45.144 96.0245 44.856 96.0725 44.664C96.0245 44.52 96.0245 44.424 96.0245 44.328C96.0245 44.28 96.2165 44.136 96.2645 44.088C96.8405 43.752 97.3685 43.272 97.8965 42.936C98.6165 42.552 99.2885 42.072 100.056 41.736C100.296 41.496 100.585 41.304 100.968 41.16C101.304 40.968 101.593 40.824 101.832 40.584C101.929 40.488 102.072 40.44 102.168 40.392C102.361 40.296 102.697 40.248 102.648 39.96C102.793 39.912 102.937 39.912 103.08 39.912L102.985 39.768ZM84.3605 49.8C83.7365 50.184 83.3045 50.472 82.8725 50.472C82.2005 50.472 81.9125 50.184 81.8645 49.416C81.8645 49.032 81.8645 48.648 82.0085 48.216C82.3445 47.448 82.5365 47.16 82.7765 46.824C83.2565 46.488 83.7845 45.72 84.4565 45.48C84.7445 45.24 84.9365 45.096 85.4165 44.856C85.5125 45.672 85.8005 46.728 85.5605 47.928C85.3205 49.08 84.6005 49.416 84.3605 49.8ZM94.2965 47.496C94.3445 48.264 94.2485 48.888 94.0565 49.608C94.0085 50.088 93.7685 50.616 93.6245 51.096C93.5285 51.48 93.4325 51.864 93.1925 52.2C92.8565 52.584 92.6165 53.208 92.0405 53.448C91.8485 53.592 91.5605 53.544 91.4165 53.352C91.0805 52.824 91.0325 52.248 91.0805 51.672C91.1285 51.48 90.9845 51.336 90.9845 51.192C91.0325 50.568 91.0325 49.896 91.2245 49.224C91.4165 48.648 91.8485 47.928 92.2805 47.256C92.3765 47.112 92.6645 46.968 92.8085 46.728C93.0485 46.344 93.3845 46.2 93.7205 45.96C93.9125 45.72 94.2005 45.576 94.4405 45.384C94.3925 46.104 94.2005 46.776 94.2965 47.496ZM108.093 40.296C108.237 40.2 108.333 40.056 108.477 39.96C108.477 39.912 108.429 39.912 108.429 39.912L108.333 39.576L106.701 40.776C106.605 40.872 106.317 41.016 106.125 41.112C105.645 41.4 104.733 41.928 104.301 42.216L104.157 42.312L102.573 43.224C102.333 43.368 102.093 43.368 101.853 43.464C101.469 43.608 101.085 43.8 100.749 43.944C100.317 44.088 99.8848 44.28 99.4528 44.328C98.8288 44.424 98.2048 44.376 97.5808 44.424C97.1968 44.28 97.1008 44.184 96.9088 43.608C97.2448 43.416 97.3888 43.368 97.7728 43.176C97.8688 43.08 97.9648 42.936 98.1088 42.888C98.3968 42.696 98.7808 42.552 99.1168 42.36C99.1648 42.312 99.1648 42.168 99.2128 42.12L99.8848 41.64C100.077 41.544 100.413 41.496 100.461 41.16C100.509 41.016 100.797 40.968 100.941 40.824C101.373 40.392 101.805 39.96 102.237 39.48C102.381 39.336 102.525 39.096 102.621 38.856C102.765 38.472 102.525 37.656 102.141 37.416C101.805 37.128 101.421 36.84 100.989 36.648C100.653 36.456 100.221 36.12 99.7408 36.312C99.5488 36.36 99.4048 36.408 99.2608 36.408C98.6367 36.456 98.1088 36.744 97.6768 37.176C97.2448 37.656 96.8128 38.136 96.3808 38.664C96.1408 38.952 95.9488 39.24 95.7568 39.528C95.2767 40.44 95.0367 41.352 94.9887 42.312C94.9887 42.648 94.9407 42.984 95.1807 43.56C95.2767 44.04 95.2767 44.04 95.3727 44.136C95.6608 44.568 95.8528 44.856 96.1888 45.096C96.2368 45.144 96.3808 45.192 96.4288 45.288C96.9088 45.672 97.1008 45.72 97.5328 45.864C97.9648 46.008 98.4928 46.104 98.9728 46.152C99.3568 46.2 99.6928 46.104 100.077 46.008C100.317 45.96 100.605 45.912 100.797 45.816C100.941 45.72 101.037 45.672 101.229 45.672C101.565 45.624 101.901 45.624 102.189 45.48C102.669 45.288 103.053 44.952 103.485 44.712C103.821 44.472 104.109 44.28 104.493 44.088L105.405 43.368C105.597 43.224 105.837 43.032 106.029 42.84C106.077 42.792 106.269 42.6 106.317 42.456V42.408C106.365 42.072 106.557 41.976 106.749 41.832C106.605 41.688 106.701 41.592 106.893 41.496L107.037 41.304C107.277 41.16 107.277 41.016 107.373 40.92L108.093 40.296ZM97.1968 40.68C97.4848 40.104 97.8208 39.528 98.2048 39C98.5408 38.568 98.9728 38.328 99.4048 37.992C99.7888 37.704 100.221 37.704 100.653 37.512C100.845 37.416 101.085 37.848 100.941 38.088C100.749 38.424 100.557 38.712 100.269 38.952L98.9728 40.104L97.6768 41.16C97.4848 41.304 97.2448 41.448 96.8608 41.688C96.9568 41.304 97.0527 40.968 97.1968 40.68ZM103.35 45.864C103.734 46.008 103.926 45.912 104.022 45.336C104.118 45 104.118 44.664 104.214 44.328C104.358 43.896 104.406 43.464 104.598 42.984C104.886 42.408 105.27 41.88 105.558 41.208C105.894 40.632 106.278 40.152 106.614 39.672L107.526 38.472C107.766 38.232 108.054 37.992 108.342 37.752C108.438 37.608 108.534 37.416 108.678 37.368C108.966 37.176 109.254 37.08 109.446 36.84C109.734 36.6 110.022 36.648 110.31 36.648C110.934 36.936 111.222 36.792 111.222 36.792L111.27 36.552C111.174 36.312 111.078 36.12 110.886 35.976C110.79 35.976 110.742 35.88 110.694 35.832C110.502 35.64 110.262 35.448 110.022 35.256C109.446 34.92 108.774 34.92 108.15 35.4C107.622 35.736 107.094 36.12 106.662 36.744C106.326 37.08 106.038 37.32 105.798 37.752C105.75 37.896 105.558 38.04 105.414 38.232C105.414 37.992 105.51 37.848 105.51 37.704C105.558 37.272 105.51 36.84 105.366 36.456C105.174 35.736 104.79 35.496 104.31 35.688C104.166 35.688 103.974 35.784 103.878 35.928C103.83 35.976 103.83 36.168 103.782 36.264C103.686 36.936 103.542 37.56 103.446 38.232C103.35 38.856 103.11 39.528 103.014 40.2C103.014 40.728 102.822 41.256 102.726 41.784L102.342 43.752C102.198 44.376 102.438 44.856 102.63 45.336C103.014 45.528 103.062 45.72 103.35 45.864ZM121.927 43.272C121.735 43.272 120.631 44.04 120.247 44.088L119.287 44.52C118.567 44.904 118.327 45.048 117.751 45.336C117.079 45.912 116.263 46.296 115.255 46.872C115.159 47.016 115.015 47.016 114.919 46.872L115.015 46.776C115.111 46.344 115.111 46.008 115.207 45.576C115.207 45.48 115.447 45.096 115.495 45C115.447 44.568 115.735 44.088 115.495 43.704C115.399 43.464 115.447 43.224 115.639 43.08C115.639 43.08 115.735 42.888 115.735 42.744C115.783 42.408 115.735 42.024 115.879 41.688C115.831 41.4 116.167 40.632 116.119 40.104V40.008C116.167 39.864 116.311 39.048 116.359 38.712L116.455 38.184C116.071 38.184 116.263 37.992 115.927 37.848L115.831 37.512V37.416C115.735 37.416 115.543 37.32 115.447 37.32C115.255 37.32 114.967 37.32 114.871 37.128C114.535 36.936 114.439 37.08 114.151 37.416C113.575 37.704 113.143 38.184 112.567 38.664C112.135 38.952 111.847 39.384 111.367 39.672C110.983 39.96 110.695 40.536 110.263 40.776C110.167 40.92 109.783 41.16 109.543 41.304C109.687 40.92 109.735 40.728 109.735 40.344C109.927 39.768 110.071 39.096 110.167 38.76C110.311 38.232 110.167 37.8 110.311 37.56C110.407 37.368 110.311 37.224 110.311 37.224C110.023 36.984 109.639 36.552 109.399 36.408C109.063 36.216 109.063 36.264 108.823 36.168C108.487 36.168 108.391 36.312 108.199 36.504C108.199 36.648 108.103 36.936 108.247 37.08C108.391 37.368 108.391 37.656 108.295 37.944C108.103 38.376 108.055 38.904 108.007 39.24C107.911 39.864 107.863 40.68 107.671 41.256C107.671 41.64 107.287 41.88 107.335 42.408C107.431 42.696 107.623 43.08 107.767 43.368C107.719 43.464 108.823 44.04 109.063 44.04C109.447 43.944 109.687 43.656 110.071 43.368C110.647 43.08 110.983 42.552 111.559 42.312C112.327 41.64 112.903 40.92 113.623 40.488L113.959 40.584C113.911 40.872 113.767 41.16 113.815 41.496C113.767 42.36 113.623 43.272 113.383 44.328C113.335 44.952 113.239 45.528 113.095 46.248C113.143 46.728 112.951 47.112 112.855 47.592C112.855 48.024 112.903 48.36 112.375 48.648C112.039 48.792 111.559 49.176 111.127 49.416C110.839 49.752 110.407 49.896 109.879 50.28C109.351 50.664 108.679 51.144 108.055 51.624C106.903 52.488 105.799 53.496 104.695 54.408C103.687 55.464 102.583 56.52 101.719 57.672C100.807 58.872 99.8945 60.168 99.0785 61.56C98.2145 63.048 97.5425 64.632 97.1585 66.264C97.1585 66.792 97.0625 67.416 96.9185 68.184C96.9665 68.328 96.9665 68.472 96.9665 68.856C96.6785 69.72 96.8225 70.584 97.3025 71.304C97.5425 71.88 97.8785 72.456 98.0705 72.888C98.9345 74.088 99.7985 74.856 101.287 75.144C101.623 75.288 102.103 75.288 102.391 75.24C102.967 75.096 104.215 75.192 104.695 74.808C104.647 74.808 105.511 74.184 105.895 73.848C106.375 73.656 106.759 73.416 106.999 73.32L107.479 72.552L108.343 71.256L109.207 69.24L111.271 64.92L112.039 61.512C112.135 61.08 112.615 59.928 112.711 59.832L112.951 58.296H112.999C113.047 58.392 113.239 58.296 113.143 57.96C113.479 57.72 113.575 56.136 113.671 55.752C113.719 55.464 114.439 50.664 114.535 50.664H114.439C114.439 50.472 114.535 50.376 114.583 50.184C114.727 50.136 114.679 49.704 114.823 49.608C115.111 49.32 115.207 49.032 115.303 48.696L115.591 48.648L116.599 48.12L118.711 46.536L119.719 45.96C120.103 45.576 120.439 45.528 120.775 45.288C120.871 45.288 121.111 45 121.255 44.904C121.351 44.712 121.783 44.232 122.023 43.848L121.927 43.272ZM112.231 52.056C111.895 53.112 111.703 54.36 111.655 55.32C111.415 56.184 111.271 57 111.127 57.912C111.175 58.008 110.935 58.104 110.935 58.392H111.079C110.839 59.16 110.599 60.12 110.503 60.552C109.975 62.232 109.207 63.912 108.679 65.592C108.391 66.168 108.295 66.744 108.055 67.32C107.623 68.136 107.191 68.856 106.711 69.816C106.423 70.728 105.607 71.496 104.887 72.216C104.263 72.792 103.447 73.464 102.631 73.608C101.911 73.992 101.095 74.04 100.423 73.656L100.279 73.56H100.183C100.135 73.416 100.135 73.32 100.135 73.32C99.8465 73.176 99.7505 72.936 99.7505 72.696C99.5585 72.552 99.5105 72.312 99.5105 71.928C99.3185 71.784 99.2705 71.688 99.1265 71.592C99.1265 71.352 99.1265 71.352 98.9345 71.4V70.968L99.1265 70.68C98.9345 70.056 98.8385 69.624 98.8385 69.096C98.8385 68.52 98.7905 67.992 99.0785 67.32C99.3185 67.08 99.3665 66.552 99.3665 66.36C99.5105 66.024 99.5585 65.592 99.7985 65.304C99.8465 64.968 99.8945 64.584 100.135 64.248C100.471 64.056 100.423 63.624 100.711 63.48C100.951 63.144 101.047 62.952 101.191 62.856C101.047 62.856 101.047 62.664 100.903 62.664L101.047 62.568C101.287 62.664 101.527 62.28 101.623 62.04C101.719 61.8 102.007 61.32 102.103 61.08C102.391 60.408 102.967 59.976 103.303 59.4C103.447 59.4 103.591 59.4 103.591 59.208C103.639 58.776 103.831 58.776 103.927 58.392C104.215 58.392 104.311 58.248 104.311 58.104C104.455 58.008 104.743 57.816 104.839 57.528C104.791 57.384 105.031 57.384 105.079 57.192H104.839L105.079 57.048C105.559 56.952 105.895 56.376 106.279 56.088C106.231 55.992 106.423 55.848 106.567 55.848C106.711 55.704 106.759 55.464 106.855 55.464C107.095 55.32 107.239 55.32 107.287 55.32C107.239 55.272 107.479 55.032 107.623 54.792C107.863 54.696 107.959 54.456 108.103 54.264C108.103 54.12 108.247 54.12 108.247 54.12C108.919 53.976 109.447 53.496 109.783 53.064C109.975 52.872 110.263 52.776 110.407 52.584C110.503 52.584 110.695 52.392 110.935 52.248V52.104C111.319 52.104 111.607 51.768 111.847 51.384C111.847 51.144 112.087 51.144 112.375 51.048C112.231 51.336 112.231 51.72 112.231 52.056ZM127.317 46.632C127.653 46.632 127.893 46.44 128.229 46.344C129.237 46.056 129.861 45.144 130.629 44.472C131.205 43.944 131.589 43.416 132.069 42.888C132.789 41.784 133.605 40.632 133.845 39.096C134.133 37.992 133.941 37.608 132.981 37.032C132.213 36.648 131.589 36.408 130.725 36.36C130.149 36.264 129.573 36.216 128.997 36.408C128.805 36.504 128.565 36.6 128.421 36.648C127.989 36.984 127.653 37.32 127.317 37.656C127.269 37.704 127.125 37.704 127.125 37.704C127.269 36.984 127.509 35.112 127.701 34.344C127.605 34.296 128.037 32.904 128.277 32.664C128.709 32.472 129.045 32.328 129.573 32.04C129.909 31.752 130.341 31.32 130.821 30.984C131.493 30.456 132.213 29.928 132.885 29.352C133.509 28.728 134.181 28.008 134.901 27.336C135.237 26.808 135.621 26.424 136.101 25.944C136.485 25.32 137.109 24.744 137.589 24.12C138.021 23.592 138.453 23.064 138.789 22.44C139.317 21.72 139.749 20.952 140.181 20.088C140.517 19.464 140.949 18.792 141.189 18.168C141.525 17.304 141.957 16.536 142.149 15.672C142.389 14.904 142.437 14.136 142.581 13.416C142.725 12.648 142.485 12.36 142.101 11.736C142.005 11.496 141.813 11.352 141.477 11.256C140.949 10.92 140.325 10.728 139.653 10.536C138.645 10.344 137.637 11.016 136.725 11.592C135.717 12.552 134.709 13.512 133.893 14.616C133.413 15.336 132.933 15.96 132.597 16.632C132.213 17.16 131.877 17.688 131.685 18.168C131.205 18.984 130.725 19.8 130.341 20.616C129.861 21.576 129.429 22.632 128.997 23.544C128.709 24.408 128.229 25.224 127.893 26.04C127.653 26.76 127.413 27.432 127.125 28.152C127.077 28.488 126.501 30.072 126.501 30.6C126.213 31.464 126.213 31.56 126.165 31.656C126.117 31.848 126.069 32.184 125.973 32.328C125.637 32.472 125.541 32.664 125.253 32.76C125.013 33.048 124.773 33.144 124.245 33.576C124.005 33.672 123.765 33.768 123.717 34.248C123.669 34.68 123.669 35.448 124.005 35.688C124.245 35.784 124.773 35.352 125.109 35.112C125.205 35.016 125.685 34.728 125.877 34.632C125.829 34.92 125.733 36.456 125.637 36.744C125.637 36.792 125.589 37.032 125.541 37.08C125.445 37.272 125.445 37.704 125.397 37.8C125.349 38.664 125.157 38.952 125.109 39.816C125.205 40.392 125.157 40.968 125.109 41.592C125.109 41.832 125.205 42.024 125.205 42.312C125.301 42.744 125.301 43.176 125.301 43.56C125.397 44.04 125.541 44.52 125.589 45.096C125.733 46.056 126.357 46.584 127.317 46.632ZM128.661 30.168C128.853 29.688 129.141 29.064 129.429 28.488C129.525 27.96 129.765 26.616 130.245 25.848C130.389 25.512 130.533 25.416 130.581 25.224C130.917 23.832 131.493 22.872 132.117 21.864C132.357 21.288 132.741 20.568 133.077 19.896C133.317 19.32 133.557 19.032 133.797 18.552C134.181 18.072 134.613 17.448 134.853 16.872C135.285 16.344 135.621 15.768 135.909 15.288L136.581 14.28C137.301 13.608 137.445 13.272 138.405 12.696C138.789 12.36 138.933 12.312 139.269 12.168C139.845 12.072 140.037 12.264 140.229 12.504C140.277 12.696 140.373 12.984 140.325 13.128C140.373 14.136 140.133 15.048 139.797 16.056C139.029 18.072 137.829 19.896 136.725 21.624C135.861 22.872 134.901 23.976 133.845 25.128C133.317 25.848 132.741 26.52 132.021 27.192C131.013 28.2 130.053 29.064 129.045 29.976C128.901 30.072 128.853 30.12 128.709 30.168H128.661ZM127.509 44.808C127.461 44.952 127.125 44.856 126.981 44.616C126.933 43.944 126.933 43.08 126.885 42.408V42.36L127.029 40.68C126.981 40.152 127.221 39.96 127.413 39.768C127.509 39.576 128.373 38.952 128.469 38.856C129.093 38.232 129.525 37.896 130.389 37.752H130.485C130.821 37.656 131.109 37.704 131.301 37.8C131.685 38.04 132.069 38.424 131.925 38.904C131.781 39.576 131.301 40.632 130.965 41.208C130.293 41.88 129.813 42.6 129.189 43.32C128.661 43.848 128.085 44.328 127.509 44.808ZM146.339 43.272C146.147 43.272 145.043 44.04 144.659 44.088L143.699 44.52C142.979 44.904 142.739 45.048 142.163 45.336C141.491 45.912 140.675 46.296 139.667 46.872C139.571 47.016 139.427 47.016 139.331 46.872L139.427 46.776C139.523 46.344 139.523 46.008 139.619 45.576C139.619 45.48 139.859 45.096 139.907 45C139.859 44.568 140.147 44.088 139.907 43.704C139.811 43.464 139.859 43.224 140.051 43.08C140.051 43.08 140.147 42.888 140.147 42.744C140.195 42.408 140.147 42.024 140.291 41.688C140.243 41.4 140.579 40.632 140.531 40.104V40.008C140.579 39.864 140.723 39.048 140.771 38.712L140.867 38.184C140.483 38.184 140.675 37.992 140.339 37.848L140.243 37.512V37.416C140.147 37.416 139.955 37.32 139.859 37.32C139.667 37.32 139.379 37.32 139.283 37.128C138.947 36.936 138.851 37.08 138.563 37.416C137.987 37.704 137.555 38.184 136.979 38.664C136.547 38.952 136.259 39.384 135.779 39.672C135.395 39.96 135.107 40.536 134.675 40.776C134.579 40.92 134.195 41.16 133.955 41.304C134.099 40.92 134.147 40.728 134.147 40.344C134.339 39.768 134.483 39.096 134.579 38.76C134.723 38.232 134.579 37.8 134.723 37.56C134.819 37.368 134.723 37.224 134.723 37.224C134.435 36.984 134.051 36.552 133.811 36.408C133.475 36.216 133.475 36.264 133.235 36.168C132.899 36.168 132.803 36.312 132.611 36.504C132.611 36.648 132.515 36.936 132.659 37.08C132.803 37.368 132.803 37.656 132.707 37.944C132.515 38.376 132.467 38.904 132.419 39.24C132.323 39.864 132.275 40.68 132.083 41.256C132.083 41.64 131.699 41.88 131.747 42.408C131.843 42.696 132.035 43.08 132.179 43.368C132.131 43.464 133.235 44.04 133.475 44.04C133.859 43.944 134.099 43.656 134.483 43.368C135.059 43.08 135.395 42.552 135.971 42.312C136.739 41.64 137.315 40.92 138.035 40.488L138.371 40.584C138.323 40.872 138.179 41.16 138.227 41.496C138.179 42.36 138.035 43.272 137.795 44.328C137.747 44.952 137.651 45.528 137.507 46.248C137.555 46.728 137.363 47.112 137.267 47.592C137.267 48.024 137.315 48.36 136.787 48.648C136.451 48.792 135.971 49.176 135.539 49.416C135.251 49.752 134.819 49.896 134.291 50.28C133.763 50.664 133.091 51.144 132.467 51.624C131.315 52.488 130.211 53.496 129.107 54.408C128.099 55.464 126.995 56.52 126.131 57.672C125.219 58.872 124.307 60.168 123.491 61.56C122.627 63.048 121.955 64.632 121.571 66.264C121.571 66.792 121.475 67.416 121.331 68.184C121.379 68.328 121.379 68.472 121.379 68.856C121.091 69.72 121.235 70.584 121.715 71.304C121.955 71.88 122.291 72.456 122.483 72.888C123.347 74.088 124.211 74.856 125.699 75.144C126.035 75.288 126.515 75.288 126.803 75.24C127.379 75.096 128.627 75.192 129.107 74.808C129.059 74.808 129.923 74.184 130.307 73.848C130.787 73.656 131.171 73.416 131.411 73.32L131.891 72.552L132.755 71.256L133.619 69.24L135.683 64.92L136.451 61.512C136.547 61.08 137.027 59.928 137.123 59.832L137.363 58.296H137.411C137.459 58.392 137.651 58.296 137.555 57.96C137.891 57.72 137.987 56.136 138.083 55.752C138.131 55.464 138.851 50.664 138.947 50.664H138.851C138.851 50.472 138.947 50.376 138.995 50.184C139.139 50.136 139.091 49.704 139.235 49.608C139.523 49.32 139.619 49.032 139.715 48.696L140.003 48.648L141.011 48.12L143.123 46.536L144.131 45.96C144.515 45.576 144.851 45.528 145.187 45.288C145.283 45.288 145.523 45 145.667 44.904C145.763 44.712 146.195 44.232 146.435 43.848L146.339 43.272ZM136.643 52.056C136.307 53.112 136.115 54.36 136.067 55.32C135.827 56.184 135.683 57 135.539 57.912C135.587 58.008 135.347 58.104 135.347 58.392H135.491C135.251 59.16 135.011 60.12 134.915 60.552C134.387 62.232 133.619 63.912 133.091 65.592C132.803 66.168 132.707 66.744 132.467 67.32C132.035 68.136 131.603 68.856 131.123 69.816C130.835 70.728 130.019 71.496 129.299 72.216C128.675 72.792 127.859 73.464 127.043 73.608C126.323 73.992 125.507 74.04 124.835 73.656L124.691 73.56H124.595C124.547 73.416 124.547 73.32 124.547 73.32C124.259 73.176 124.163 72.936 124.163 72.696C123.971 72.552 123.923 72.312 123.923 71.928C123.731 71.784 123.683 71.688 123.539 71.592C123.539 71.352 123.539 71.352 123.347 71.4V70.968L123.539 70.68C123.347 70.056 123.251 69.624 123.251 69.096C123.251 68.52 123.203 67.992 123.491 67.32C123.731 67.08 123.779 66.552 123.779 66.36C123.923 66.024 123.971 65.592 124.211 65.304C124.259 64.968 124.307 64.584 124.547 64.248C124.883 64.056 124.835 63.624 125.123 63.48C125.363 63.144 125.459 62.952 125.603 62.856C125.459 62.856 125.459 62.664 125.315 62.664L125.459 62.568C125.699 62.664 125.939 62.28 126.035 62.04C126.131 61.8 126.419 61.32 126.515 61.08C126.803 60.408 127.379 59.976 127.715 59.4C127.859 59.4 128.003 59.4 128.003 59.208C128.051 58.776 128.243 58.776 128.339 58.392C128.627 58.392 128.723 58.248 128.723 58.104C128.867 58.008 129.155 57.816 129.251 57.528C129.203 57.384 129.443 57.384 129.491 57.192H129.251L129.491 57.048C129.971 56.952 130.307 56.376 130.691 56.088C130.643 55.992 130.835 55.848 130.979 55.848C131.123 55.704 131.171 55.464 131.267 55.464C131.507 55.32 131.651 55.32 131.699 55.32C131.651 55.272 131.891 55.032 132.035 54.792C132.275 54.696 132.371 54.456 132.515 54.264C132.515 54.12 132.659 54.12 132.659 54.12C133.331 53.976 133.859 53.496 134.195 53.064C134.387 52.872 134.675 52.776 134.819 52.584C134.915 52.584 135.107 52.392 135.347 52.248V52.104C135.731 52.104 136.019 51.768 136.259 51.384C136.259 51.144 136.499 51.144 136.787 51.048C136.643 51.336 136.643 51.72 136.643 52.056ZM165.17 22.344C159.746 24.264 153.458 28.536 150.962 32.472C150.146 33.72 150.434 36.216 152.834 36.264C153.218 36.216 153.602 36.024 154.13 35.688C153.65 35.592 153.362 35.592 153.122 35.496C152.834 35.448 152.642 35.304 152.69 35.016C152.738 34.584 152.882 34.2 153.17 33.864C154.13 32.664 155.042 31.56 156.146 30.504C158.69 27.96 163.106 25.464 166.418 24.408C172.418 22.44 177.074 24.552 174.386 28.968C173.714 30.12 172.802 31.176 171.794 32.088C169.394 34.248 166.898 36.072 164.114 37.56C162.53 38.424 158.546 39.816 157.298 40.104C159.362 35.448 160.706 32.76 160.514 32.184C160.13 31.56 159.746 31.368 159.026 31.416C158.306 32.184 157.97 33.144 157.49 34.056C156.674 35.736 156.146 37.512 155.474 39.288C155.234 39.816 155.186 40.488 154.85 40.92C154.466 41.448 154.706 41.976 154.466 42.504C154.178 43.32 154.082 44.136 153.89 44.952C153.65 46.584 153.362 48.312 153.362 49.992C153.314 51 153.41 52.152 153.986 52.968C154.082 53.112 153.986 53.304 154.274 53.304C155.138 52.824 154.802 52.248 154.994 51.624C155.57 51.672 156.002 51.768 156.338 51.864C156.818 52.056 157.202 52.152 157.73 52.296C158.066 52.392 158.498 52.488 158.93 52.536C159.314 52.632 160.514 52.632 161.138 52.68C161.186 52.68 161.666 52.728 161.714 52.68C162.482 52.584 163.25 52.632 164.018 52.488C165.794 52.2 166.802 51.96 168.53 51C169.49 50.472 170.258 49.944 171.074 49.224C171.122 49.224 171.074 49.128 171.122 48.984C171.314 48.888 171.506 48.696 171.698 48.504C173.666 46.104 173.474 43.224 171.65 41.4C169.826 39.576 167.378 38.904 164.786 39.192V39.096C166.562 38.04 167.858 37.224 169.298 36.408C169.682 36.168 170.066 35.976 170.354 35.688C170.738 35.352 171.17 35.064 171.266 34.584C171.41 34.584 171.554 34.584 171.65 34.536C172.034 34.248 172.418 34.008 172.706 33.768C173.09 33.24 173.714 32.904 173.81 32.184C173.81 32.136 173.858 32.088 173.954 32.088L174.386 31.848C180.626 25.416 174.146 19.176 165.17 22.344ZM166.994 40.872C168.722 41.112 169.682 41.688 170.354 42.888C171.266 44.568 170.546 46.728 169.25 48.072C167.09 50.28 164.786 50.952 161.858 51.144C159.794 51.288 157.682 50.712 156.77 50.472C156.434 50.376 155.138 49.992 155.138 49.032C155.138 47.928 156.05 44.424 156.242 43.704C156.386 43.128 156.482 42.744 156.674 42.312C156.914 42.264 157.682 42.024 158.258 41.88C160.658 41.304 163.25 40.344 166.994 40.872ZM174.631 47.112C175.015 47.304 175.687 47.208 176.119 46.728C176.503 46.392 176.407 46.488 176.743 45.864C177.031 45.48 177.031 45.24 176.983 44.904C176.791 44.664 176.647 44.568 176.407 44.568C176.167 44.52 176.071 44.472 175.687 44.472C175.207 44.328 174.967 44.568 174.679 44.856C174.391 45.24 174.343 45.816 174.055 46.344C173.911 46.488 174.103 47.112 174.631 47.112Z" fill="#DF928E"/>
</svg>
