<svg width="1812" height="1954" viewBox="0 0 1812 1954" fill="none" xmlns="http://www.w3.org/2000/svg">
<path d="M1803.93 984C1791 1984 1987.5 1882.5 997.5 1947.5C479.457 1947.5 0.5 2036.04 0.5 1518C22.001 1093.5 -63.4606 860.548 214.5 578.5C512.797 275.816 642.07 0.5 1021.5 0.5C1539.54 0.5 1810.63 466 1803.93 984Z" fill="white"/>
<path d="M1744.65 987.16C1732.56 1921.74 1916.23 1826.88 990.887 1887.63C506.676 1887.63 59 1970.38 59 1486.23C79.0968 1089.5 -0.783447 871.784 259.024 608.188C537.839 325.306 658.67 68 1013.32 68C1497.53 68 1750.91 503.047 1744.65 987.16Z" fill="#DF928E"/>
</svg>
