<svg width="51" height="51" viewBox="0 0 51 51" fill="none" xmlns="http://www.w3.org/2000/svg">
<path fill-rule="evenodd" clip-rule="evenodd" d="M22.6997 19.1609C17.9655 15.2694 14.1295 10.6351 11.2469 5.23573C10.6704 4.16029 9.32889 3.75007 8.24237 4.32659C7.16694 4.90311 6.75664 6.24466 7.33317 7.33118C10.504 13.2405 14.695 18.3184 19.8837 22.5868C20.8261 23.3629 22.234 23.2299 23.0101 22.2875C23.7862 21.334 23.6421 19.937 22.6997 19.1609Z" fill="#DF928E"/>
<path fill-rule="evenodd" clip-rule="evenodd" d="M20.1752 4.00512C20.4192 8.48425 20.6409 12.9634 20.9181 17.4425C20.9957 18.6621 22.049 19.5934 23.2686 19.5158C24.4881 19.4382 25.4194 18.3849 25.3418 17.1653C25.0646 12.6973 24.8428 8.22927 24.5989 3.75014C24.5324 2.5339 23.4792 1.59705 22.2596 1.66579C21.04 1.73452 20.0976 2.78223 20.1752 4.00512Z" fill="#DF928E"/>
<path fill-rule="evenodd" clip-rule="evenodd" d="M36.635 4.91435C33.7968 9.19391 30.5817 13.1408 27.3443 17.1321C26.5682 18.0856 26.7123 19.4826 27.6657 20.2476C28.6192 21.0237 30.0162 20.8795 30.7812 19.9261C34.1073 15.835 37.4112 11.766 40.3382 7.36452C41.0145 6.34452 40.7262 4.96979 39.7062 4.29348C38.6972 3.61718 37.3113 3.89435 36.635 4.91435Z" fill="#DF928E"/>
<path fill-rule="evenodd" clip-rule="evenodd" d="M47.6295 20.824C39.9351 21.1677 31.764 21.1788 24.0697 20.691C22.8501 20.6245 21.7968 21.5447 21.7192 22.7754C21.6416 23.9949 22.5729 25.0482 23.7925 25.1258C31.6421 25.6136 39.9795 25.6025 47.8291 25.2588C49.0486 25.2034 50.002 24.1613 49.9466 22.9417C49.8912 21.7221 48.849 20.7686 47.6295 20.824Z" fill="#DF928E"/>
<path fill-rule="evenodd" clip-rule="evenodd" d="M19.8779 22.232C24.6231 28.0415 29.5347 33.7403 33.9362 39.8159C34.6569 40.8027 36.0428 41.0244 37.0406 40.3037C38.0274 39.5831 38.249 38.1971 37.5284 37.2104C33.0714 31.0682 28.1045 25.303 23.3039 19.427C22.5278 18.4846 21.1308 18.3405 20.1884 19.1166C19.2349 19.8926 19.1018 21.2896 19.8779 22.232Z" fill="#DF928E"/>
<path fill-rule="evenodd" clip-rule="evenodd" d="M21.3149 23.9177C22.5566 29.9711 22.9003 35.7585 22.989 41.8896C23.0001 43.1092 24.009 44.0848 25.2286 44.0737C26.4593 44.0516 27.4349 43.0537 27.4127 41.823C27.324 35.4037 26.9582 29.3614 25.661 23.0196C25.406 21.8222 24.2419 21.0461 23.0334 21.3011C21.836 21.545 21.0599 22.7203 21.3149 23.9177Z" fill="#DF928E"/>
<path fill-rule="evenodd" clip-rule="evenodd" d="M21.515 23.4301C17.9229 30.6144 16.0713 38.5971 12.2242 45.6262C11.6366 46.6905 12.0356 48.0431 13.111 48.6307C14.1865 49.2183 15.5281 48.8191 16.1157 47.7548C19.9851 40.6813 21.8587 32.6544 25.4841 25.4146C26.0274 24.317 25.5839 22.9866 24.4974 22.4322C23.3998 21.889 22.0694 22.3325 21.515 23.4301Z" fill="#DF928E"/>
<path fill-rule="evenodd" clip-rule="evenodd" d="M23.492 21.7997C16.3409 23.0636 9.2009 23.6401 2.00547 24.4938C0.785902 24.6379 -0.0788803 25.7355 0.0652502 26.9551C0.209381 28.1747 1.30709 29.0395 2.52666 28.8953C9.7997 28.0416 17.0284 27.4429 24.2682 26.1679C25.4656 25.9462 26.2749 24.7931 26.0642 23.5957C25.8425 22.3873 24.7005 21.5779 23.492 21.7997Z" fill="#DF928E"/>
<path fill-rule="evenodd" clip-rule="evenodd" d="M28.4679 18.4299C26.9934 18.3633 25.5964 18.2635 24.1551 18.0529C22.9355 17.8755 21.8157 18.7181 21.6383 19.9266C21.4609 21.1351 22.3035 22.266 23.512 22.4433C25.1085 22.6762 26.6496 22.787 28.2683 22.8536C29.4879 22.909 30.53 21.9666 30.5744 20.7359C30.6298 19.5163 29.6875 18.4853 28.4679 18.4299Z" fill="#DF928E"/>
</svg>
